<svg width="20" height="15" viewBox="0 0 20 15" fill="none" xmlns="http://www.w3.org/2000/svg">
<path d="M19.1667 8.05583H0.833326C0.373324 8.05583 -7.62939e-06 7.68249 -7.62939e-06 7.22249C-7.62939e-06 6.76249 0.373324 6.38916 0.833326 6.38916H19.1667C19.6267 6.38916 20 6.76249 20 7.22249C20 7.68249 19.6267 8.05583 19.1667 8.05583Z" fill="white"/>
<path d="M19.1667 1.66667H0.833333C0.373332 1.66667 0 1.29334 0 0.833333C0 0.373332 0.373332 0 0.833333 0H19.1667C19.6267 0 20 0.373332 20 0.833333C20 1.29334 19.6267 1.66667 19.1667 1.66667Z" fill="white"/>
<path d="M19.1667 14.4445H0.833326C0.373324 14.4445 -7.62939e-06 14.0712 -7.62939e-06 13.6112C-7.62939e-06 13.1512 0.373324 12.7778 0.833326 12.7778H19.1667C19.6267 12.7778 20 13.1512 20 13.6112C20 14.0712 19.6267 14.4445 19.1667 14.4445Z" fill="white"/>
</svg>
