<svg width="185" height="38" viewBox="0 0 185 38" fill="none" xmlns="http://www.w3.org/2000/svg">
<g clip-path="url(#clip0_34_577)">
<path d="M18.0896 38C12.855 38 8.53142 36.2499 5.11885 32.7498C1.70628 29.2497 0 24.9551 0 19.8659C0 14.7735 1.70628 10.4789 5.11885 6.98205C8.53142 3.48523 12.855 1.73435 18.0896 1.72939C21.1545 1.6996 24.1724 2.48875 26.8352 4.01628C29.1786 5.33576 31.1594 7.22081 32.5991 9.50183C32.6538 9.58619 32.6909 9.68084 32.7081 9.78006C32.7253 9.87927 32.7223 9.98097 32.6993 10.079C32.6763 10.177 32.6337 10.2693 32.5742 10.3502C32.5146 10.4312 32.4393 10.4991 32.3529 10.5499L31.3016 11.152C31.1354 11.2504 30.9376 11.2797 30.7504 11.2334C30.5631 11.1871 30.4013 11.0689 30.2995 10.9042C29.1244 8.98693 27.4874 7.39923 25.5401 6.2883C23.2785 4.96422 20.7035 4.27939 18.0871 4.30616C13.583 4.28965 9.88151 5.78368 6.98271 8.78827C4.08392 11.7929 2.63452 15.4854 2.63452 19.8659C2.63452 24.2547 4.08392 27.9464 6.98271 30.9411C9.88151 33.9358 13.5838 35.4348 18.0896 35.4381C20.7245 35.4602 23.3164 34.766 25.5918 33.4287C27.0278 32.5686 28.3096 31.4713 29.3835 30.1829C29.8127 29.6703 30.2067 29.1289 30.5629 28.5625C30.6375 28.442 30.7449 28.3455 30.8723 28.2845C30.9997 28.2235 31.1418 28.2004 31.2819 28.2181C31.836 28.2969 32.3486 28.5583 32.7395 28.9614C32.8491 29.0786 32.918 29.2285 32.9357 29.3884C32.9535 29.5484 32.9192 29.7098 32.838 29.8484C32.4088 30.5815 31.9214 31.2784 31.3803 31.9322C30.126 33.4276 28.6169 34.6861 26.9238 35.6487C24.2402 37.2115 21.19 38.0233 18.0896 38V38Z" fill="white"/>
<path d="M71.1887 17.0464C70.5953 17.0464 70.1324 17.1504 70.1324 17.75V34.9847H61.5148V25.5894C61.5764 20.2797 61.5764 20.0667 56.135 20.1732C50.7527 20.2674 50.7527 20.0196 50.7527 25.5894V35.0045H41.1502V17.75C41.1502 17.1504 40.739 17.0464 40.1457 17.0464C39.5523 17.0464 38.9983 17.1504 38.9983 17.75V36.0674C38.9983 36.2096 39.0261 36.3504 39.0802 36.4818C39.1343 36.6132 39.2135 36.7325 39.3134 36.8331C39.4134 36.9336 39.532 37.0134 39.6625 37.0678C39.793 37.1222 39.933 37.1502 40.0743 37.1502H51.8213C52.0905 37.1494 52.3497 37.0472 52.5479 36.8638C52.7461 36.6804 52.869 36.429 52.8923 36.1591C52.8938 36.1311 52.8938 36.1029 52.8923 36.0749V25.5894C52.944 22.2619 52.944 22.2619 56.1202 22.3387C59.3703 22.4056 59.3703 22.2495 59.3703 25.5894V36.0798C59.3688 36.1079 59.3688 36.136 59.3703 36.1641C59.3925 36.4344 59.5151 36.6865 59.7135 36.8701C59.9119 37.0537 60.1718 37.1554 60.4413 37.1551H71.1887C71.4741 37.1551 71.7477 37.0411 71.9495 36.838C72.1513 36.635 72.2647 36.3596 72.2647 36.0724V17.75C72.2745 17.1504 71.7722 17.0464 71.1887 17.0464Z" fill="white"/>
<path d="M76.4012 14.6727L56.7704 0.210581C56.5863 0.0741479 56.3637 0.000549316 56.1351 0.000549316C55.9065 0.000549316 55.6839 0.0741479 55.4999 0.210581L34.8841 14.6727C34.3917 15.027 34.6379 15.3244 34.9851 15.8075C35.3322 16.2907 35.6745 16.7738 36.1546 16.422L56.1351 2.42562L75.1283 16.422C75.1945 16.4768 75.2716 16.5167 75.3544 16.5389C75.4373 16.5611 75.5239 16.5652 75.6084 16.5508C75.9383 16.5508 76.1747 16.2287 76.384 15.9388C76.7385 15.4557 76.8813 15.027 76.4012 14.6727Z" fill="white"/>
<path d="M87.9438 22.7301C86.066 22.7301 84.5148 22.1057 83.2903 20.857C82.6906 20.2546 82.2186 19.536 81.9029 18.7447C81.5872 17.9534 81.4343 17.1059 81.4535 16.2535C81.4345 15.4014 81.5875 14.5544 81.9032 13.7635C82.2189 12.9727 82.6908 12.2545 83.2903 11.6525C84.5115 10.4037 86.0627 9.77934 87.9438 9.77934C89.0399 9.7688 90.1191 10.0518 91.0707 10.5994C91.9942 11.1224 92.7598 11.8869 93.2867 12.812L91.8709 13.6495C91.5119 12.956 90.9601 12.3826 90.2828 11.9993C89.5755 11.5875 88.7708 11.3752 87.9536 11.3849C86.5239 11.3849 85.3569 11.8482 84.4524 12.7748C84.0062 13.2316 83.6561 13.7742 83.423 14.3702C83.1899 14.9661 83.0786 15.6033 83.0958 16.2436C83.077 16.884 83.1876 17.5216 83.4208 18.1179C83.654 18.7141 84.0049 19.2565 84.4524 19.7123C85.3569 20.639 86.5239 21.1031 87.9536 21.1048C88.771 21.1135 89.5756 20.9004 90.2828 20.4878C90.9572 20.1096 91.5086 19.5435 91.8709 18.8575L93.3064 19.6801C92.7851 20.614 92.0185 21.3855 91.0904 21.91C90.1328 22.4603 89.0465 22.7435 87.9438 22.7301V22.7301Z" fill="white"/>
<path d="M102.951 10.0098V11.5806H99.282V22.4972H97.657V11.5806H94.0056V10.0098H102.951Z" fill="white"/>
<path d="M109.091 10.0098C109.62 9.99659 110.145 10.0913 110.636 10.2881C111.127 10.4849 111.573 10.7797 111.948 11.1548C112.322 11.5299 112.618 11.9775 112.816 12.4705C113.014 12.9636 113.11 13.4919 113.1 14.0236C113.109 14.5548 113.011 15.0823 112.812 15.5746C112.614 16.0668 112.318 16.5137 111.944 16.8884C111.57 17.2632 111.124 17.5581 110.634 17.7555C110.144 17.9529 109.619 18.0488 109.091 18.0374H106.238V22.4972H104.591V10.0098H109.091ZM109.091 16.4864C109.409 16.4955 109.724 16.4374 110.018 16.3157C110.312 16.1941 110.576 16.0116 110.795 15.7802C111.018 15.547 111.191 15.2715 111.307 14.9699C111.422 14.6683 111.477 14.3466 111.467 14.0236C111.478 13.6989 111.424 13.3753 111.309 13.0719C111.193 12.7684 111.019 12.4914 110.795 12.257C110.575 12.0287 110.309 11.8491 110.016 11.7297C109.723 11.6103 109.408 11.5536 109.091 11.5632H106.238V16.4864H109.091Z" fill="white"/>
<path d="M125.288 20.8397C124.389 21.7508 123.242 22.3721 121.991 22.6246C120.741 22.8771 119.444 22.7492 118.266 22.2573C117.088 21.7654 116.082 20.9318 115.376 19.8626C114.671 18.7934 114.297 17.537 114.304 16.2535C114.304 14.5384 114.981 12.8936 116.186 11.6809C117.391 10.4681 119.026 9.7868 120.73 9.7868C122.434 9.7868 124.069 10.4681 125.274 11.6809C126.479 12.8936 127.156 14.5384 127.156 16.2535C127.171 17.1057 127.013 17.952 126.692 18.7405C126.371 19.5291 125.893 20.2434 125.288 20.8397V20.8397ZM117.31 19.7049C118.221 20.6038 119.447 21.1073 120.723 21.1073C121.999 21.1073 123.224 20.6038 124.135 19.7049C124.584 19.2529 124.937 18.7141 125.174 18.1208C125.41 17.5276 125.524 16.8924 125.509 16.2535C125.525 15.6119 125.411 14.9738 125.175 14.3777C124.939 13.7815 124.585 13.2397 124.135 12.7848C123.223 11.8871 121.998 11.3844 120.723 11.3844C119.447 11.3844 118.222 11.8871 117.31 12.7848C116.86 13.2393 116.506 13.7811 116.27 14.3773C116.033 14.9736 115.92 15.6119 115.936 16.2535C115.92 16.8925 116.034 17.5281 116.27 18.1215C116.506 18.7149 116.86 19.2536 117.31 19.7049Z" fill="white"/>
<path d="M136.852 22.4972V13.1861L130.47 22.4972H129.143V10.0098H130.791V19.3407L137.175 10.0098H138.504V22.4972H136.852ZM131.436 8.67181V7.31653H136.215V8.67181H131.436Z" fill="white"/>
<path d="M91.115 24.8758V37.3632H89.4678V26.4466H83.758V37.3632H82.1108V24.8758H91.115Z" fill="white"/>
<path d="M95.4238 35.7949H101.185V37.3632H93.7742V24.8758H101.097V26.4466H95.4337V30.2821H100.663V31.8331H95.4238V35.7949Z" fill="white"/>
<path d="M110.847 24.8758H112.477V37.3632H110.847V31.7439H104.819V37.3632H103.17V24.8758H104.819V30.1755H110.847V24.8758Z" fill="white"/>
<path d="M125.462 35.7057C124.564 36.6172 123.417 37.2389 122.166 37.4915C120.916 37.7442 119.619 37.6164 118.441 37.1244C117.263 36.6324 116.257 35.7985 115.552 34.7291C114.847 33.6596 114.474 32.403 114.481 31.1195C114.485 30.0578 114.749 29.0134 115.249 28.0785C115.749 27.1436 116.47 26.3471 117.349 25.7592C118.228 25.1713 119.237 24.8102 120.287 24.7076C121.337 24.6051 122.396 24.7644 123.371 25.1714C124.345 25.5784 125.205 26.2206 125.874 27.0413C126.544 27.8619 127.002 28.8359 127.209 29.8771C127.416 30.9182 127.365 31.9946 127.06 33.0111C126.755 34.0277 126.207 34.9531 125.462 35.7057V35.7057ZM117.478 34.5709C118.389 35.4698 119.614 35.9733 120.89 35.9733C122.166 35.9733 123.391 35.4698 124.303 34.5709C125.185 33.6377 125.677 32.3989 125.677 31.1109C125.677 29.8228 125.185 28.584 124.303 27.6508C123.391 26.7531 122.166 26.2504 120.89 26.2504C119.614 26.2504 118.389 26.7531 117.478 27.6508C116.595 28.584 116.103 29.8228 116.103 31.1109C116.103 32.3989 116.595 33.6377 117.478 34.5709V34.5709Z" fill="white"/>
<path d="M138.325 24.8758V37.3632H136.682V26.4466H130.968V37.3632H129.318V24.8758H138.325Z" fill="white"/>
<path d="M139.903 37.3632V35.8643C140.724 35.9832 141.335 35.7544 141.737 35.1779C142.139 34.6015 142.343 33.5278 142.348 31.957V24.8758H150.539V37.3632H148.89V26.4466H143.997V31.9594C144.017 32.9057 143.913 33.8504 143.687 34.7691C143.544 35.4045 143.239 35.9913 142.801 36.4713C142.447 36.8343 142.007 37.1011 141.523 37.2468C140.995 37.3883 140.445 37.4278 139.903 37.3632V37.3632Z" fill="white"/>
<path d="M161.371 37.3632L160.359 34.5635H154.775L153.765 37.3632H152.01L156.626 24.8758H158.487L163.116 37.3632H161.371ZM155.343 33.0224H159.792L157.559 26.8678L155.343 33.0224Z" fill="white"/>
<path d="M169.986 37.5961C168.108 37.5961 166.557 36.9718 165.332 35.723C164.155 34.4837 163.498 32.8353 163.498 31.1207C163.498 29.4062 164.155 27.7578 165.332 26.5185C166.557 25.2697 168.108 24.6454 169.986 24.6454C171.085 24.6338 172.168 24.9168 173.123 25.4655C174.046 25.9888 174.811 26.7532 175.339 27.678L173.903 28.5155C173.544 27.8227 172.993 27.2495 172.317 26.8654C171.609 26.4539 170.804 26.2417 169.986 26.2509C168.556 26.2509 167.389 26.7142 166.485 27.6409C165.613 28.5831 165.129 29.8225 165.129 31.1096C165.129 32.3967 165.613 33.6361 166.485 34.5783C167.389 35.505 168.556 35.9691 169.986 35.9708C170.804 35.9792 171.609 35.7662 172.317 35.3538C172.991 34.9743 173.541 34.4074 173.903 33.7211L175.339 34.5436C174.817 35.4775 174.051 36.249 173.123 36.7735C172.168 37.3234 171.085 37.6073 169.986 37.5961V37.5961Z" fill="white"/>
<path d="M185 24.8758V26.4466H181.331V37.3632H179.701V26.4466H176.048V24.8758H185Z" fill="white"/>
</g>
<defs>
<clipPath id="clip0_34_577">
<rect width="185" height="38" fill="white"/>
</clipPath>
</defs>
</svg>
