<svg width="19" height="19" viewBox="0 0 19 19" fill="none" xmlns="http://www.w3.org/2000/svg">
<path d="M9.5 0C4.24932 0 0 4.24891 0 9.5C0 14.7507 4.24891 19 9.5 19C14.7507 19 19 14.7511 19 9.5C19 4.24928 14.7511 0 9.5 0ZM9.5 17.5156C5.06973 17.5156 1.48438 13.9306 1.48438 9.5C1.48438 5.0697 5.0694 1.48438 9.5 1.48438C13.9303 1.48438 17.5156 5.0694 17.5156 9.5C17.5156 13.9303 13.9306 17.5156 9.5 17.5156Z" fill="#660033"/>
<path d="M12.7502 11.7007L10.5495 9.50001L12.7502 7.29935C13.04 7.00952 13.04 6.53961 12.7502 6.24974C12.4603 5.95988 11.9904 5.95992 11.7006 6.24974L9.4999 8.45041L7.29921 6.24974C7.00942 5.95988 6.53943 5.95988 6.2496 6.24974C5.95978 6.53961 5.95978 7.00952 6.24964 7.29935L8.4503 9.50001L6.24964 11.7007C5.95978 11.9905 5.95974 12.4604 6.2496 12.7503C6.53954 13.0402 7.00946 13.0401 7.29921 12.7503L9.4999 10.5496L11.7006 12.7503C11.9903 13.0401 12.4603 13.0401 12.7502 12.7503C13.0401 12.4604 13.04 11.9905 12.7502 11.7007Z" fill="#660033"/>
</svg>
