<svg width="420" height="420" viewBox="0 0 420 420" fill="none" xmlns="http://www.w3.org/2000/svg">
<path d="M195.374 12.8439C192.699 14.384 191.483 16.4104 191.483 19.4906C191.483 22.2466 191.97 22.9761 202.102 35.6212L209.965 45.4292L198.535 46.4019C158.574 49.7253 124.205 65.0453 95.9969 92.1997C69.3288 117.895 52.3876 151.21 47.1189 188.335C45.3356 200.899 45.7409 224.73 47.9294 237.294C53.9277 271.662 68.194 299.789 91.7008 324.026C101.59 334.077 109.371 340.643 119.747 347.37C129.312 353.693 145.604 361.799 148.522 361.799C149.819 361.799 151.927 360.907 153.305 359.691C155.412 357.989 155.818 357.016 155.818 354.179C155.818 349.964 154.197 348.181 147.307 345.182C141.795 342.831 131.5 336.914 125.421 332.78C89.4312 308.057 66.3296 268.906 61.8714 224.811C57.4132 181.931 72.7332 137.998 102.644 107.439C124.691 84.8234 150.873 70.3951 180.865 64.3157C187.998 62.8567 205.101 60.9924 205.912 61.4787C206.074 61.6408 202.021 64.9642 196.995 69.0171C186.782 77.1229 185.404 78.5009 184.755 81.1758C183.296 87.2552 190.511 92.3618 196.023 89.2006C196.914 88.6332 205.749 81.7432 215.639 73.7995C235.417 57.75 236.47 56.5342 233.796 51.4275C232.337 48.5094 206.803 16.4915 203.885 13.8976C201.616 11.8712 197.968 11.3848 195.374 12.8439Z" fill="#8D4953"/>
<path d="M266.3 58.6413C264.436 59.3708 262.004 63.2616 262.004 65.4502C262.004 69.2599 264.03 71.0432 273.92 75.8256C316.961 96.7386 346.223 134.755 356.112 182.66C357.815 190.928 358.058 194.089 358.058 210.625C357.977 227.728 357.815 230.079 355.869 239.482C349.466 269.311 335.686 294.682 314.611 315.676C289.726 340.318 255.438 356.043 221.475 358.313C217.26 358.556 213.937 358.556 214.18 358.313C214.423 358.07 218.8 354.584 223.907 350.45C229.013 346.397 233.634 342.182 234.201 341.291C238.092 334.401 229.581 327.025 223.096 331.564C219.611 333.996 187.025 360.421 186.377 361.312C185.323 362.852 184.837 365.77 185.323 367.635C185.809 369.661 214.099 405.327 216.611 407.029C221.718 410.677 229.905 405.327 228.365 399.328C228.122 398.356 223.988 392.52 219.124 386.359C214.18 380.28 210.451 374.93 210.613 374.606C210.856 374.281 214.018 373.957 217.665 373.957C248.224 373.876 286.078 359.529 313.071 337.724C320.366 331.807 333.416 318.676 338.685 311.948C372.891 268.014 383.024 210.787 365.677 158.829C351.492 116.517 321.338 81.905 281.782 62.6132C272.055 57.8307 269.705 57.2633 266.3 58.6413Z" fill="#8D4953"/>
<path d="M263.139 112.383C262.166 112.87 259.248 115.139 256.654 117.247C250.818 122.029 240.929 126.893 232.823 129.081C229.499 129.973 219.61 131.999 210.937 133.621C187.349 137.998 176.893 141.888 166.598 150.237C156.871 158.1 147.388 173.987 143.092 189.551C141.146 196.684 140.903 199.115 140.903 209.41C140.903 225.54 143.821 236.321 151.846 250.101L155.169 255.775L150.711 265.259C143.416 280.417 138.066 298.574 137.985 308.058C137.985 311.705 138.309 312.435 140.498 314.299C143.659 316.974 146.901 316.974 149.981 314.38C152.089 312.597 152.575 311.381 153.791 304.491C160.114 268.988 186.863 228.377 227.392 192.55C232.255 188.335 236.551 183.958 236.957 182.823C238.659 178.365 234.687 172.934 229.824 172.934C226.987 172.934 225.528 173.906 215.72 182.336C199.913 196.035 180.784 217.11 169.111 233.727C166.598 237.294 164.329 240.212 163.923 240.212C162.789 240.212 158.493 228.864 157.034 222.055C155.899 217.191 155.737 213.625 156.061 207.059C156.709 196.116 158.087 190.929 163.599 179.58C170.327 165.638 178.514 158.343 192.861 153.399C195.455 152.507 205.182 150.4 214.585 148.616C236.795 144.401 242.469 142.78 252.763 137.755C257.464 135.404 261.436 133.702 261.598 133.945C262.49 135.485 265.327 157.533 265.976 167.827C268.164 205.033 260.139 231.782 242.144 246.697C233.471 253.83 219.286 258.936 204.534 260.152C198.454 260.639 197.319 260.963 195.374 262.989C192.456 265.907 192.294 270.041 195.05 273.203C196.995 275.391 197.238 275.472 204.209 275.31C218.719 275.067 234.687 270.284 245.873 262.989C253.736 257.802 263.868 247.102 268.326 239.239C282.998 213.463 285.835 173.42 276.189 128.595C273.676 117.004 272.46 114.167 269.38 112.627C266.462 111.086 265.408 111.005 263.139 112.383Z" fill="#8D4953"/>
</svg>
