<svg width="420" height="420" viewBox="0 0 420 420" fill="none" xmlns="http://www.w3.org/2000/svg">
<path d="M236.193 69.8551C233.828 71.2301 227.723 76.3451 222.388 81.3501C208.583 94.275 197.913 108.795 189.443 126.01C179.708 145.755 175.748 165.39 174.538 199.27L174.153 209.39L171.898 208.73C168.543 207.685 165.903 206.2 162.603 203.45C155.068 197.18 149.678 187.225 145.993 172.925C143.903 164.785 142.858 163.3 139.173 163.3C134.993 163.3 125.808 171.22 120.253 179.69C109.583 195.915 104.413 216.375 104.248 243.05C104.193 256.36 104.798 261.805 107.493 272.035C116.183 304.925 140.713 332.15 172.283 343.92C185.098 348.705 195.383 350.52 209.518 350.52C223.653 350.52 233.938 348.705 246.753 343.92C274.693 333.47 297.738 310.425 308.188 282.485C313.853 267.415 315.833 252.84 314.623 236.45C312.808 212.855 307.638 195.53 296.198 174.85C291.853 167.095 285.473 157.635 272.823 140.255C261.328 124.415 257.478 118.475 253.463 110.5C248.238 100.05 245.708 90.755 244.828 78.7101C244.388 73.1001 244.168 72.3301 242.958 71.1201C241.363 69.5251 237.898 68.8651 236.193 69.8551ZM234.818 92.46C236.358 100.215 238.833 107.2 243.068 115.725C247.743 125.185 251.538 131.07 264.463 148.725C280.193 170.23 286.133 179.635 291.908 192.285C298.398 206.475 301.863 220.775 302.963 238.155C304.118 255.26 301.313 270.385 294.273 285.18C286.848 300.69 275.848 313.615 261.713 323.24C259.018 325.055 247.963 331.05 247.248 331.05C247.028 331.05 247.358 330.335 248.018 329.4C249.943 326.705 253.903 317.795 254.948 313.725C255.773 310.645 255.993 308.005 255.938 300.525C255.883 292 255.718 290.625 254.233 284.85C251.868 275.94 248.238 268.625 240.098 256.525C230.088 241.675 228.658 238.65 227.668 229.74C227.228 226.055 226.898 225.01 225.688 223.745C223.708 221.71 221.618 221.27 219.088 222.48C215.843 224.02 207.923 232.325 203.853 238.43C196.263 249.815 193.183 259.385 192.028 274.675L191.643 280.175L190.158 277.975C188.838 275.995 186.968 270.935 186.198 267.195C185.318 262.905 180.203 261.475 176.133 264.445C170.633 268.405 166.508 275.94 164.088 286.28C162.603 292.495 162.603 308.225 164.088 313.725C165.133 317.795 169.093 326.705 171.018 329.4C171.678 330.335 172.063 331.05 171.843 331.05C170.358 331.05 158.258 324.065 153.583 320.49C135.048 306.41 122.618 286.94 117.723 264.445C113.433 244.425 116.403 214.725 124.653 196.135C127.128 190.47 134.113 179.8 135.323 179.8C135.543 179.8 136.093 181.34 136.643 183.21C137.908 187.83 142.253 196.74 145.663 201.855C153.583 213.735 164.858 220.775 177.068 221.435L182.348 221.765L184.053 220.06L185.758 218.355L186.088 206.915C187.298 166.82 190.433 150.375 200.498 130.19C204.898 121.335 209.463 114.13 216.063 105.55C219.638 100.875 233.168 86.6301 233.608 87.0701C233.718 87.235 234.268 89.6 234.818 92.46ZM221.233 248.825C222.003 250.365 225.743 256.25 229.648 262.025C237.348 273.52 240.758 280.12 242.463 286.775C245.873 300.085 245.323 308.885 240.483 318.95C238.393 323.295 237.238 324.89 233.498 328.575C226.293 335.78 218.978 338.915 209.518 338.915C200.058 338.915 192.743 335.78 185.538 328.575C181.798 324.945 180.643 323.295 178.553 318.95C175.143 311.91 174.043 306.355 174.483 298.27C174.813 292.275 176.023 285.675 177.343 282.485L178.003 280.89L179.378 283.31C183.118 289.58 188.838 293.76 194.833 294.475C198.298 294.915 201.378 293.87 202.423 291.89C202.863 291.12 203.303 286.995 203.523 281C203.963 270.66 204.568 265.93 206.328 259.825C207.648 255.205 211.718 247.175 215.018 242.83L217.383 239.695L218.593 242.885C219.308 244.645 220.463 247.34 221.233 248.825Z" fill="#8D4953"/>
<circle cx="210" cy="210" r="157" stroke="#8D4953" stroke-width="10"/>
<line x1="108.921" y1="94.7536" x2="313.303" y2="331.614" stroke="#8D4953" stroke-width="13"/>
</svg>
