<svg width="420" height="420" viewBox="0 0 420 420" fill="none" xmlns="http://www.w3.org/2000/svg">
<path d="M312.966 93.6099C303.835 102.468 292.954 110.888 272.996 124.667C259.873 133.689 258.506 134.783 255.062 138.993C251.726 143.148 249.047 148.015 246.696 154.248C245.602 157.146 244.728 158.896 244.345 158.677C244.017 158.513 242.048 157.31 239.916 155.998C235.049 153.045 233.19 152.717 227.668 153.811C216.35 156.107 202.571 164.637 184.91 180.166C178.95 185.469 176.763 188.039 174.411 192.687C171.459 198.592 171.131 200.506 170.857 214.831L170.639 228.282L167.194 228.064C161.726 227.681 156.86 230.415 154.399 235.172C153.634 236.648 150.408 249.716 145.979 269.455L138.707 301.387L130.833 306.089C126.459 308.659 116.288 314.127 108.141 318.173C92.0114 326.32 90.9178 327.14 92.5581 330.038C93.0503 330.859 94.0345 331.897 94.8546 332.335C96.0576 333.046 96.6043 333.046 98.6274 332.39C102.4 331.187 125.31 319.431 134.715 313.908L143.19 308.933L145.924 309.753C158.719 313.69 176.817 314.291 194.205 311.284C206.07 309.261 221.927 304.449 235.651 298.653C243.689 295.263 246.587 293.185 248.391 289.412C249.758 286.624 250.086 280.937 248.938 278.86C248.61 278.149 248.446 277.493 248.555 277.329C248.719 277.219 252.492 276.235 256.975 275.251C277.206 270.713 280.159 269.51 286.666 263.003C299.187 250.591 309.631 232.711 316.848 211.551C326.963 181.861 330.463 142 326.253 104.382C324.94 92.3523 324.448 90.3293 322.917 89.0717C320.347 87.0486 319.254 87.5407 312.966 93.6099ZM318.324 115.208C319.09 125.815 319.09 146.812 318.379 156.38C316.247 183.72 310.669 206.684 301.483 226.04C293.829 242.116 281.909 257.644 274.199 261.527C269.825 263.714 238.768 270.658 229.855 271.423C223.895 271.97 222.747 272.244 221.599 273.446C220.177 275.032 220.177 277.602 221.708 279.188C222.692 280.281 223.403 280.445 226.465 280.445C229.691 280.445 235.104 279.789 238.44 279.078C239.424 278.86 239.806 279.078 240.244 280.281C241.173 282.796 240.955 285.312 239.642 286.733C237.237 289.248 216.131 297.231 203.555 300.348C188.956 303.957 173.099 305.324 161.671 304.012C151.993 302.863 151.939 303.465 162.382 296.302C199.509 270.822 235.159 239.327 267.255 203.622C276.988 192.851 278.464 190.882 278.464 189.078C278.464 188.094 277.972 186.946 277.097 186.125C274.527 183.501 272.395 184.43 267.528 190.117C254.624 205.153 229.254 231.016 213.944 244.631C204.812 252.778 192.4 263.112 183.051 270.384C170.803 279.953 150.189 294.498 149.642 293.951C149.259 293.568 161.562 240.257 162.382 238.999C163.913 236.539 165.171 236.429 174.193 237.796C178.731 238.562 183.105 239.109 183.871 239.054C185.511 238.999 187.698 236.539 187.698 234.789C187.698 232.602 185.566 230.797 182.504 230.305L179.77 229.868L179.606 218.386C179.442 205.7 179.934 201.435 182.066 196.842C186.113 188.203 213.452 167.152 225.699 163.27C232.042 161.247 231.714 161.137 240.299 166.605C251.562 173.659 251.781 173.768 254.132 171.362C255.991 169.558 255.937 167.097 254.023 165.184L252.601 163.762L253.804 160.153C254.515 158.185 256.155 154.303 257.522 151.514C260.858 144.461 264.576 140.852 277.644 132.049C289.4 124.12 306.787 111.162 312.911 105.803L317.012 102.194L317.395 104.546C317.614 105.803 317.996 110.615 318.324 115.208Z" fill="#8D4953"/>
</svg>
