<svg width="420" height="420" viewBox="0 0 420 420" fill="none" xmlns="http://www.w3.org/2000/svg">
<path d="M199.674 62.3755C187.637 64.2624 175.079 70.1186 165.448 78.3172C159.983 83.0021 159.007 85.8651 161.935 88.7281C164.538 91.3959 166.685 90.8753 171.89 86.5158C180.739 79.098 189.459 74.9336 199.739 73.1117C217.503 69.9884 234.356 74.9336 248.671 87.3616C252.38 90.55 254.592 91.0705 257.064 89.3788C258.886 88.0774 259.537 85.0192 258.431 83.0021C257.13 80.5946 249.907 74.6083 244.376 71.3549C233.575 65.0433 224.465 62.4405 212.037 62.0501C207.417 61.92 201.822 62.0501 199.674 62.3755Z" fill="#8D4953"/>
<path d="M201.626 83.1971C193.427 84.6937 184.838 88.9231 178.917 94.3238C175.273 97.6423 174.558 99.3991 175.664 102.392C176.119 103.498 179.178 105.32 180.739 105.32C181.26 105.32 183.537 103.824 185.815 102.002C200.65 90.0944 218.999 90.0944 233.77 102.002C238.259 105.646 238.845 105.776 241.578 104.344C243.66 103.303 244.246 102.197 244.246 99.4642C244.246 95.5601 233.379 87.817 223.554 84.6937C217.958 82.8718 207.222 82.156 201.626 83.1971Z" fill="#8D4953"/>
<path d="M203.709 104.019C197.853 105.516 190.76 110.396 189.979 113.454C189.524 115.341 190.955 118.594 192.517 119.245C194.794 120.091 197.007 119.57 199.935 117.423C203.449 114.886 206.442 113.779 209.76 113.779C213.079 113.779 216.072 114.886 219.585 117.423C223.88 120.546 227.198 120.351 229.02 116.968C230.322 114.43 229.606 112.283 226.808 109.81C222.709 106.231 216.918 103.954 211.192 103.629C208.459 103.499 205.075 103.694 203.709 104.019Z" fill="#8D4953"/>
<path d="M110.401 138.115C101.682 140.978 96.6064 147.354 87.6921 166.615C84.9592 172.471 82.1613 178.262 81.3805 179.498C77.4764 186.005 73.4421 189.258 69.2127 189.258C64.5929 189.258 62.3806 194.854 65.699 198.173C67.1956 199.669 67.7161 199.799 70.9696 199.474C78.5825 198.693 85.1544 193.488 90.7503 183.923C92.2469 181.45 95.3051 175.204 97.6475 170.193C104.219 155.748 107.213 151.063 111.572 148.916C117.558 145.793 122.959 148.526 128.23 157.375C129.01 158.611 131.808 164.402 134.541 170.258C144.822 192.642 151.329 199.344 162.911 199.344C174.493 199.344 181 192.642 191.281 170.258C198.243 155.163 200.911 151.128 205.27 148.916C208.394 147.289 211.126 147.289 214.25 148.916C218.544 151.063 221.798 156.073 228.304 170.323C235.787 186.786 241.123 194.138 247.76 197.392C254.592 200.71 262.595 200.06 268.451 195.57C274.438 191.015 277.301 186.395 287.712 164.532C292.266 155.097 295.325 150.738 298.903 148.916C305.15 145.728 310.616 148.656 316.016 158.026C316.927 159.652 319.66 165.183 322.003 170.388C327.468 182.296 330.592 187.566 334.756 192.121C338.595 196.351 343.475 198.953 348.55 199.474C351.804 199.799 352.324 199.669 353.821 198.173C357.205 194.789 354.927 189.258 350.112 189.258C346.598 189.258 342.434 186.135 339.246 181.125C337.749 178.652 334.496 172.341 332.023 167.005C324.28 150.152 319.4 143.255 312.438 139.481C309.444 137.789 308.273 137.594 303.784 137.529C292.006 137.529 285.629 143.906 275.479 165.834C272.616 171.885 269.102 178.782 267.606 181.19C260.904 191.796 252.38 191.796 245.678 181.32C244.246 178.977 240.798 172.275 238.13 166.484C230.322 149.567 225.376 142.865 218.154 139.091C214.12 137.008 206.181 136.943 201.822 138.961C194.534 142.279 189.329 149.306 181.39 166.549C175.339 179.628 171.63 185.419 167.856 187.632C164.212 189.779 161.284 189.714 157.64 187.371C153.801 184.964 150.743 180.084 144.432 166.484C136.623 149.632 131.613 142.8 124.586 139.156C121.072 137.399 114.175 136.878 110.401 138.115Z" fill="#8D4953"/>
<path d="M108.579 234.415C102.267 235.912 99.079 238.059 90.1647 246.843C80.2093 256.668 77.086 258.686 70.8394 259.466C67.3908 259.857 66.1545 260.312 65.1785 261.484C62.3155 264.997 64.9833 269.942 69.7984 269.942C73.6374 269.942 78.8428 268.706 82.8771 266.819C85.4798 265.583 88.7983 262.85 95.1099 256.668C99.7948 251.984 105.261 247.234 107.147 246.192C110.206 244.436 111.117 244.24 116.062 244.24C121.007 244.24 121.918 244.436 124.976 246.192C126.863 247.234 132.329 251.984 137.014 256.603C143.195 262.655 146.709 265.583 149.247 266.819C157.966 270.918 167.726 270.918 176.575 266.819C179.178 265.583 182.496 262.85 188.808 256.668C193.493 251.984 198.959 247.234 200.846 246.192C203.904 244.436 204.815 244.24 209.76 244.24C214.705 244.24 215.616 244.436 218.674 246.192C220.561 247.234 226.027 251.984 230.712 256.603C236.893 262.655 240.407 265.583 242.945 266.819C251.664 270.918 261.424 270.918 270.273 266.819C272.876 265.583 276.195 262.85 282.506 256.668C287.191 251.984 292.657 247.234 294.544 246.192C297.602 244.436 298.513 244.24 303.458 244.24C310.941 244.24 312.763 245.282 323.955 256.213C333.585 265.583 336.968 267.795 343.67 269.227C349.331 270.398 352.064 270.138 353.886 268.316C355.838 266.429 356.033 263.566 354.342 261.484C353.365 260.312 352.129 259.857 348.746 259.466C342.304 258.686 338.92 256.473 329.225 246.778C322.914 240.466 319.79 237.864 317.123 236.627C308.273 232.528 298.513 232.528 289.794 236.693C287.256 237.864 283.547 240.922 277.106 247.234C265.914 258.165 264.092 259.206 256.609 259.206C251.664 259.206 250.753 259.011 247.695 257.254C245.808 256.148 240.342 251.463 235.657 246.778C229.346 240.597 226.027 237.864 223.424 236.627C214.575 232.528 204.815 232.528 196.096 236.693C193.558 237.864 189.849 240.922 183.407 247.234C172.216 258.165 170.394 259.206 162.911 259.206C157.966 259.206 157.055 259.011 153.997 257.254C152.11 256.148 146.644 251.463 141.959 246.778C132.784 237.799 129.596 235.651 122.699 234.22C118.339 233.309 112.808 233.374 108.579 234.415Z" fill="#8D4953"/>
<path d="M107.928 301.631C102.918 302.282 99.0789 303.388 90.8153 306.641C81.9009 310.22 76.24 311.586 70.3188 311.586C67.9113 311.586 66.8702 311.912 65.6339 313.213C63.4216 315.36 63.4866 318.288 65.699 320.501C67.3257 322.128 67.5209 322.193 73.6373 321.802C80.7297 321.282 87.0413 319.72 93.4831 316.857C100.576 313.669 106.236 312.172 112.808 311.782C121.527 311.261 127.253 312.367 137.599 316.467C148.401 320.761 150.288 321.217 159.007 321.737C168.116 322.323 175.99 321.217 183.407 318.354C197.332 312.888 199.805 312.172 206.311 311.782C215.226 311.261 220.887 312.302 231.363 316.532C243.14 321.151 245.417 321.672 256.609 321.672C267.671 321.672 269.948 321.217 281.986 316.402C298.708 309.83 308.273 309.83 324.996 316.467C335.407 320.631 338.009 321.282 346.078 321.802C351.999 322.193 352.194 322.128 353.821 320.501C355.968 318.354 356.098 315.36 354.016 313.278C352.78 312.042 351.609 311.717 346.728 311.391C340.026 310.936 336.122 309.895 327.859 306.381C318.229 302.282 314.78 301.566 303.783 301.566C292.266 301.501 290.119 301.956 278.212 306.641C261.424 313.343 251.859 313.343 235.137 306.771C223.099 301.956 220.822 301.501 209.76 301.501C198.568 301.501 196.291 302.021 184.513 306.641C174.037 310.871 168.377 311.912 159.462 311.391C152.955 311.001 150.483 310.285 136.558 304.884C128.425 301.696 117.233 300.46 107.928 301.631Z" fill="#8D4953"/>
<path d="M65.6335 349.651C64.5924 350.627 64.0068 351.994 64.0068 353.23C64.0068 354.466 64.5924 355.833 65.6335 356.809L67.1952 358.436H209.76H352.324L353.886 356.809C356.033 354.727 356.033 351.734 353.886 349.651L352.324 348.025H209.76H67.1952L65.6335 349.651Z" fill="#8D4953"/>
</svg>
