<svg width="420" height="420" viewBox="0 0 420 420" fill="none" xmlns="http://www.w3.org/2000/svg">
<path fill-rule="evenodd" clip-rule="evenodd" d="M184.287 47.2136C168.936 51.0859 156.984 63.1366 152.985 78.7743C151.8 83.4065 151.75 86.5698 151.75 155.139V226.671L148.067 229.096C119.397 247.98 107.017 290.297 120.382 323.719C141.943 377.634 211.663 391.634 252.46 350.243C285.934 316.282 281.565 258.494 243.395 230.354L238.212 226.532L238.207 155.069C238.203 74.1732 238.505 79.1743 232.984 68.5623C224.302 51.8745 202.938 42.5084 184.287 47.2136ZM204.204 60.2799C213.641 63.2169 221.616 71.3264 224.381 80.7965C225.281 83.8811 225.396 92.5103 225.399 157.005C225.404 240.449 224.845 233.242 231.655 237.816C288.507 276.008 260.941 363.527 192.803 361.166C128.109 358.924 103.94 274.204 157.797 238.46C160.594 236.603 163.251 234.601 163.7 234.01C164.35 233.155 164.522 218.256 164.542 160.891C164.558 114.396 164.802 87.369 165.231 84.6828C168.109 66.6318 186.87 54.8853 204.204 60.2799ZM256.063 88.8453C252.493 90.7856 252.046 96.8367 255.285 99.3844C257.181 100.876 298.331 101.461 300.999 100.034C304.545 98.136 305.043 93.1169 301.988 90.0618L299.81 87.8846L278.773 87.9109C261.853 87.9313 257.409 88.1141 256.063 88.8453ZM262.969 119.933C259.639 122.552 260.196 128.598 263.947 130.538C265.478 131.329 268.249 131.468 279.283 131.307L292.751 131.112L294.296 129.316C296.562 126.678 296.424 122.952 293.968 120.496L292.096 118.624H278.365C265.506 118.624 264.527 118.708 262.969 119.933ZM254.805 151.236C252.249 153.791 252.248 156.902 254.802 159.76L256.67 161.852H278.445H300.22L301.863 160.308C304.903 157.451 304.433 151.861 300.999 150.023C300.224 149.608 291.773 149.363 278.222 149.363H256.676L254.805 151.236ZM190.765 153.157L188.893 155.028V202.455V249.883L187.132 250.272C135.526 261.678 144.702 336.484 197.441 334.301C245.027 332.331 252.758 262.937 206.694 251.239L202.021 250.052L201.701 202.75C201.452 166.108 201.196 155.126 200.565 154.021C198.653 150.675 193.685 150.236 190.765 153.157ZM264.709 180.09C260.541 181.774 259.358 187.267 262.49 190.398L264.361 192.271H278.442H292.524L294.182 190.3C296.986 186.968 296.08 182.252 292.292 180.454C289.959 179.347 267.289 179.048 264.709 180.09ZM256.063 211.163C252.493 213.103 252.046 219.154 255.285 221.702C257.181 223.193 298.331 223.778 300.999 222.351C304.545 220.452 305.043 215.434 301.988 212.379L299.81 210.202L278.773 210.227C261.853 210.248 257.409 210.431 256.063 211.163ZM207.37 265.288C232.107 276.864 229.76 312.226 203.715 320.361C184.904 326.236 165.659 311.792 165.752 291.87C165.851 270.507 188.123 256.281 207.37 265.288Z" fill="#8D4953"/>
</svg>
