<svg width="420" height="420" viewBox="0 0 420 420" fill="none" xmlns="http://www.w3.org/2000/svg">
<path d="M207.93 60.3157C206.728 60.5828 197.513 71.2671 189.232 81.8847C173.94 101.584 162.655 120.682 158.515 133.971C157.246 137.978 156.912 140.448 156.912 146.325C156.979 164.154 165.793 180.047 181.152 190.131C190.1 196.007 198.381 198.411 210 198.411C221.619 198.411 229.9 196.007 238.848 190.131C254.34 179.981 263.088 164.021 263.021 145.991C263.021 139.38 262.754 137.577 261.151 132.969C255.142 115.607 242.254 95.307 220.885 69.798C212.938 60.2489 211.67 59.314 207.93 60.3157ZM215.81 80.3488C238.714 108.462 252.738 133.303 252.738 145.724C252.671 168.628 233.038 188.061 210 188.061C194.241 188.061 178.882 178.578 172.004 164.689C168.999 158.478 167.263 151.801 167.263 145.724C167.263 135.507 176.812 116.609 193.172 94.5724C200.251 84.9565 209.332 73.8714 210 73.8714C210.267 73.8714 212.938 76.8096 215.81 80.3488Z" fill="#8D4953"/>
<path d="M233.105 141.517C231.97 142.652 231.502 144.121 231.169 147.193C230.701 151.533 228.631 156.408 225.76 159.814C223.155 162.885 216.811 165.957 211.937 166.491C208.798 166.825 207.329 167.293 206.194 168.428C202.922 171.767 205.459 177.376 210.2 177.376C227.028 177.376 242.053 162.351 242.053 145.523C242.053 140.782 236.444 138.244 233.105 141.517Z" fill="#8D4953"/>
<path d="M95.7441 108.329C93.6741 108.93 80.3854 125.624 73.1066 136.643C65.2269 148.596 60.4189 160.015 60.4189 166.626C60.4189 182.786 71.0365 197.076 87.1299 202.485C92.2049 204.221 103.424 204.221 108.499 202.485C127.53 196.141 139.083 176.375 133.874 159.28C130.335 147.527 117.58 127.628 103.357 111.467C100.886 108.663 98.2817 107.594 95.7441 108.329ZM103.49 128.429C106.228 132.035 110.435 137.845 112.772 141.317C125.126 159.948 126.929 167.56 121.52 178.445C118.716 184.188 114.709 188.061 108.632 190.932C104.559 192.869 103.557 193.069 97.8142 193.069C92.0714 193.069 91.0697 192.869 86.9963 190.932C80.9196 188.061 76.9129 184.188 74.1083 178.445C68.6993 167.56 70.5691 159.814 82.7893 141.45C88.1983 133.37 96.9461 121.952 97.8142 121.952C98.1481 121.952 100.686 124.89 103.49 128.429Z" fill="#8D4953"/>
<path d="M104.825 163.019C103.757 164.021 103.156 165.423 103.156 166.692C103.156 169.43 100.552 172.034 97.8139 172.034C95.076 172.034 92.4717 174.639 92.4717 177.377C92.4717 180.181 95.076 182.719 97.8806 182.719C106.027 182.719 113.84 174.906 113.84 166.759C113.84 163.954 111.303 161.35 108.498 161.35C107.229 161.35 105.827 161.951 104.825 163.019Z" fill="#8D4953"/>
<path d="M320.116 108.329C318.046 108.93 304.757 125.624 297.478 136.643C289.598 148.596 284.791 160.015 284.791 166.626C284.791 182.786 295.408 197.076 311.501 202.485C316.577 204.221 327.795 204.221 332.87 202.485C351.902 196.141 363.454 176.375 358.246 159.28C354.706 147.527 341.952 127.628 327.728 111.467C325.258 108.663 322.653 107.594 320.116 108.329ZM327.862 128.429C330.6 132.035 334.807 137.845 337.144 141.317C349.498 159.948 351.301 167.56 345.892 178.445C343.087 184.188 339.08 188.061 333.004 190.932C328.93 192.869 327.929 193.069 322.186 193.069C316.443 193.069 315.441 192.869 311.368 190.932C305.291 188.061 301.285 184.188 298.48 178.445C293.071 167.56 294.941 159.814 307.161 141.45C312.57 133.37 321.318 121.952 322.186 121.952C322.52 121.952 325.057 124.89 327.862 128.429Z" fill="#8D4953"/>
<path d="M329.198 163.019C328.129 164.021 327.528 165.423 327.528 166.692C327.528 167.961 326.927 169.363 325.859 170.365C324.857 171.433 323.455 172.034 322.186 172.034C317.512 172.034 315.174 177.777 318.513 181.049C321.652 184.254 328.196 182.785 333.204 177.71C336.677 174.304 338.213 170.899 338.213 166.759C338.213 163.954 335.675 161.35 332.87 161.35C331.602 161.35 330.199 161.951 329.198 163.019Z" fill="#8D4953"/>
<path d="M177.947 209.83C137.613 211.433 106.562 214.571 80.7855 219.78C61.9543 223.52 43.7909 229.329 40.5856 232.534C38.5155 234.605 38.5823 237.743 40.7859 239.88C42.856 242.017 44.659 241.817 51.7374 238.812C78.3148 227.526 140.752 220.114 209.666 220.114C279.849 220.114 341.618 227.526 369.264 239.279C375.273 241.817 377.21 241.95 379.213 239.88C382.218 236.942 381.283 233.002 377.076 230.865C372.469 228.528 360.716 224.722 349.898 222.117C327.327 216.575 300.95 213.169 263.088 210.765C252.136 210.031 189.566 209.363 177.947 209.83Z" fill="#8D4953"/>
<path d="M49.7345 242.351C46.4624 243.419 40.8531 249.162 39.8514 252.568C38.7162 256.508 38.7162 343.986 39.8514 347.926C40.9198 351.599 46.4624 357.141 50.1351 358.209C52.272 358.81 88.5988 359.011 210.134 359.011C387.361 359.011 371.2 359.545 376.476 353.669C378.078 351.932 379.748 349.261 380.149 347.792C381.284 344.053 381.284 256.441 380.149 252.701C379.748 251.232 378.078 248.561 376.476 246.825C371.2 240.949 387.427 241.483 209.733 241.55C96.8125 241.616 51.4039 241.817 49.7345 242.351ZM368.596 253.837C370.132 255.306 370.266 255.973 370.266 261.783V268.06L366.793 268.528C359.648 269.462 354.039 270.932 346.159 273.87C328.196 280.614 312.77 280.614 294.941 273.937C282.453 269.262 278.246 268.528 264.757 268.528C251.869 268.594 246.46 269.529 236.444 273.536C227.496 277.075 222.22 278.277 213.606 278.678C203.99 279.145 196.578 278.21 188.965 275.539C186.027 274.538 181.419 272.868 178.681 271.933C170.668 269.062 162.321 267.993 151.57 268.394C141.019 268.795 135.41 269.997 124.458 274.137C107.764 280.481 91.2699 280.481 74.6424 274.137C67.3637 271.399 59.4839 269.329 53.2737 268.528L49.7345 268.06V261.783C49.7345 255.973 49.868 255.306 51.4039 253.837L53.0065 252.167H210H366.993L368.596 253.837ZM60.0849 280.681C62.2886 281.215 66.8294 282.684 70.1015 283.886C81.9211 288.427 85.5271 289.095 98.8158 289.162C112.639 289.229 116.712 288.561 129.199 283.886C147.229 277.142 162.455 277.142 180.551 283.886C191.102 287.826 196.511 288.961 206.795 289.362C219.549 289.896 226.961 288.628 240.517 283.486C256.944 277.275 273.505 277.342 290.066 283.619C300.35 287.492 306.694 288.895 316.309 289.362C329.131 289.963 338.413 288.427 350.232 283.686C355.508 281.616 361.785 279.946 367.127 279.212L370.266 278.811V311.933V345.054L368.596 346.657L366.993 348.326H210H53.0065L51.4039 346.657L49.7345 345.054V311.933V278.811L52.9398 279.212C54.676 279.479 57.8813 280.08 60.0849 280.681Z" fill="#8D4953"/>
<path d="M62.0884 307.258C61.0199 308.26 60.4189 309.662 60.4189 310.931C60.4189 312.199 61.0199 313.602 62.0884 314.603C65.3605 317.942 71.1033 315.605 71.1033 310.931C71.1033 308.193 68.499 305.588 65.7611 305.588C64.4924 305.588 63.09 306.189 62.0884 307.258Z" fill="#8D4953"/>
<path d="M136.879 307.259C133.54 310.531 135.877 316.273 140.552 316.273C141.821 316.273 143.223 315.672 144.225 314.604C145.293 313.602 145.894 312.2 145.894 310.931C145.894 309.662 145.293 308.26 144.225 307.259C143.223 306.19 141.821 305.589 140.552 305.589C139.283 305.589 137.881 306.19 136.879 307.259Z" fill="#8D4953"/>
<path d="M206.327 307.258C205.259 308.26 204.658 309.662 204.658 310.931C204.658 312.199 205.259 313.602 206.327 314.603C209.599 317.942 215.342 315.605 215.342 310.931C215.342 308.193 212.738 305.588 210 305.588C208.731 305.588 207.329 306.189 206.327 307.258Z" fill="#8D4953"/>
<path d="M275.776 307.259C272.437 310.531 274.774 316.273 279.448 316.273C282.186 316.273 284.79 313.669 284.79 310.931C284.79 308.193 282.186 305.589 279.448 305.589C278.179 305.589 276.777 306.19 275.776 307.259Z" fill="#8D4953"/>
<path d="M350.566 307.259C347.227 310.531 349.564 316.273 354.239 316.273C356.977 316.273 359.581 313.669 359.581 310.931C359.581 308.193 356.977 305.589 354.239 305.589C352.97 305.589 351.568 306.19 350.566 307.259Z" fill="#8D4953"/>
<path d="M99.4834 328.627C98.415 329.628 97.814 331.031 97.814 332.299C97.814 333.568 98.415 334.971 99.4834 335.972C100.485 337.041 101.887 337.642 103.156 337.642C104.425 337.642 105.827 337.041 106.829 335.972C107.897 334.971 108.498 333.568 108.498 332.299C108.498 331.031 107.897 329.628 106.829 328.627C105.827 327.558 104.425 326.957 103.156 326.957C101.887 326.957 100.485 327.558 99.4834 328.627Z" fill="#8D4953"/>
<path d="M174.274 328.627C170.935 331.899 173.272 337.642 177.947 337.642C179.216 337.642 180.618 337.041 181.62 335.972C182.688 334.971 183.289 333.568 183.289 332.299C183.289 331.031 182.688 329.628 181.62 328.627C180.618 327.558 179.216 326.957 177.947 326.957C176.678 326.957 175.276 327.558 174.274 328.627Z" fill="#8D4953"/>
<path d="M238.38 328.627C235.041 331.899 237.378 337.642 242.053 337.642C244.791 337.642 247.395 335.037 247.395 332.299C247.395 329.562 244.791 326.957 242.053 326.957C240.784 326.957 239.382 327.558 238.38 328.627Z" fill="#8D4953"/>
<path d="M313.171 328.627C309.832 331.899 312.169 337.642 316.844 337.642C319.582 337.642 322.186 335.037 322.186 332.299C322.186 329.562 319.582 326.957 316.844 326.957C315.575 326.957 314.173 327.558 313.171 328.627Z" fill="#8D4953"/>
</svg>
