<svg width="31" height="31" viewBox="0 0 31 31" fill="none" xmlns="http://www.w3.org/2000/svg">
<path d="M30.0282 25.3367L20.1916 15.5L30.0282 5.66333C31.3237 4.36785 31.3238 2.26738 30.0284 0.971735C28.7326 -0.323912 26.6321 -0.323746 25.3368 0.971735L15.5 10.8084L5.66321 0.971735C4.3679 -0.323912 2.26712 -0.323912 0.971644 0.971735C-0.323827 2.26738 -0.323826 4.36785 0.971811 5.66333L10.8084 15.5L0.971811 25.3367C-0.323826 26.6324 -0.323993 28.7328 0.971644 30.0283C2.26761 31.3241 4.36807 31.3236 5.66321 30.0283L15.5 20.1916L25.3368 30.0283C26.6319 31.3238 28.7327 31.324 30.0284 30.0283C31.324 28.7327 31.3238 26.6322 30.0282 25.3367Z" fill="white"/>
</svg>
