<svg width="16" height="15" viewBox="0 0 16 15" fill="none" xmlns="http://www.w3.org/2000/svg">
<g clip-path="url(#clip0_67_1385)">
<path d="M8.23578 0C4.23623 0 1 3.3547 1 7.5C1 11.6456 4.23651 15 8.23578 15C12.2353 15 15.4716 11.6453 15.4716 7.5C15.4716 3.3544 12.235 0 8.23578 0ZM8.23578 13.8281C4.86116 13.8281 2.13059 10.9976 2.13059 7.5C2.13059 4.00216 4.86139 1.17188 8.23578 1.17188C11.6104 1.17188 14.341 4.00239 14.341 7.5C14.341 10.9978 11.6101 13.8281 8.23578 13.8281Z" fill="#65343C"/>
<path d="M8.39911 6.27917C8.08706 6.27917 7.83411 6.5415 7.83411 6.86511V10.6384C7.83411 10.962 8.08706 11.2243 8.39911 11.2243C8.71116 11.2243 8.96411 10.9619 8.96411 10.6383V6.86511C8.96411 6.5415 8.71116 6.27917 8.39911 6.27917Z" fill="#65343C"/>
<path d="M8.39898 5.56171C8.82024 5.56171 9.16174 5.20756 9.16174 4.77069C9.16174 4.33383 8.82024 3.97968 8.39898 3.97968C7.97773 3.97968 7.63623 4.33383 7.63623 4.77069C7.63623 5.20756 7.97773 5.56171 8.39898 5.56171Z" fill="#65343C"/>
</g>
<defs>
<clipPath id="clip0_67_1385">
<rect width="15.0547" height="15" fill="white" transform="translate(0.587158)"/>
</clipPath>
</defs>
</svg>
