<svg width="7" height="7" viewBox="0 0 7 7" fill="none" xmlns="http://www.w3.org/2000/svg">
<path fill-rule="evenodd" clip-rule="evenodd" d="M6.64142 2.87998C6.9177 2.94703 7.00596 3.10719 6.99969 3.53012C6.99432 3.89384 6.955 3.9838 6.75374 4.09293L6.66718 4.13985H3.5H0.332827L0.264408 4.10608C0.056 4.0032 0.00568854 3.89349 0.000312406 3.53012C-0.00600937 3.10362 0.0824253 2.94578 0.365014 2.87927C0.474831 2.85343 6.5348 2.85411 6.64142 2.87998Z" fill="#AC5B5B"/>
<path fill-rule="evenodd" clip-rule="evenodd" d="M4.12002 6.64142C4.05297 6.9177 3.89281 7.00596 3.46988 6.99969C3.10616 6.99432 3.0162 6.955 2.90707 6.75374L2.86015 6.66718L2.86015 3.5L2.86015 0.332827L2.89392 0.264408C2.9968 0.0559999 3.10651 0.0056885 3.46988 0.000312377C3.89638 -0.00600938 4.05422 0.0824253 4.12073 0.365014C4.14657 0.474831 4.14589 6.5348 4.12002 6.64142Z" fill="#AC5B5B"/>
</svg>
