<svg width="120" height="120" viewBox="0 0 120 120" fill="none" xmlns="http://www.w3.org/2000/svg">
<rect width="120" height="120" fill="white"/>
<path d="M69.0711 28.3841C67.6521 28.8283 63.124 29.9224 63.124 30.49C63.124 30.8478 64.0358 31.735 64.3689 31.735C64.5046 31.735 68.8983 30.383 69.5646 30.1855C70.9589 29.7537 71.2427 29.7413 71.909 30.0498C72.5506 30.3336 73.0071 30.8765 73.2539 31.6292C74.3768 35.1458 86.1603 74.2846 86.1603 74.5313C86.1603 74.9509 85.8519 75.7035 85.5311 76.0367C85.3953 76.1847 85.0745 76.3945 84.8278 76.5056C84.4329 76.6783 54.5236 85.772 50.7109 86.8949C49.8965 87.1293 49.0821 87.3144 48.8847 87.3144C48.2801 87.3144 47.33 86.7345 47.0339 86.1669C46.9599 86.0558 45.7507 82.1074 44.3193 77.4186C42.9004 72.7175 40.4108 65.0571 40.2997 64.9337C40.0283 64.6376 39.3373 64.6499 39.0288 64.9584C38.8931 65.0941 38.782 65.3656 38.782 65.563C38.782 65.9702 45.0967 86.5124 45.3928 87.0923C45.689 87.6599 46.5527 88.4619 47.2313 88.8074C47.7372 89.0542 48.0333 89.1035 48.8971 89.1035C49.9088 89.1035 50.2297 89.0171 56.979 86.9566C60.8534 85.7844 66.4305 84.0816 69.3795 83.1932L74.7469 81.5645L74.8086 82.823C74.9567 87.5975 74.6099 87.9306 75.8081 87.9306C77.0062 87.9306 76.6594 87.7579 76.6594 82.6009L76.7211 80.9599L80.8053 79.726C85.8889 78.1713 85.9629 78.1466 86.7279 77.4186C87.4806 76.703 87.9001 75.8393 87.9742 74.7905C88.0482 73.9021 88.1963 74.4326 84.6797 62.8835C83.2607 58.2317 80.5215 49.1874 78.5843 42.7712C76.6348 36.355 74.969 30.8765 74.858 30.5804C74.3274 29.1367 72.8714 28.1003 71.2674 28.0139C70.5764 27.9646 70.1939 28.0386 69.0711 28.3841Z" fill="#8D4953"/>
<path d="M55.8067 32.4064C51.1549 33.8254 47.3052 34.9853 47.2312 34.9976C47.1695 34.9976 46.9597 34.7508 46.7623 34.4547C45.1582 31.9252 41.58 31.0368 38.8531 32.5052C37.903 33.011 36.9036 34.0845 36.373 35.1457C36.0028 35.8983 35.8918 36.2932 35.7807 37.305L35.645 38.5388L34.9664 38.7486C34.0656 39.0201 33.3993 39.4889 32.8317 40.2416C31.9187 41.4508 31.9804 39.6864 32.0174 65.2278L32.0544 88.1163L32.3258 88.6962C32.696 89.5106 33.5104 90.3373 34.3247 90.7321L35.0157 91.0776H54.326H73.6363L74.3396 90.7321C75.5488 90.1399 76.6593 88.5729 76.6593 87.45C76.6593 86.7961 75.8079 86.3519 75.1786 86.6973C75.0429 86.7714 74.8578 87.1169 74.7468 87.5241C74.5 88.3508 73.9324 88.9677 73.2291 89.1651C72.9083 89.2638 67.1214 89.2885 54.0669 89.2638L35.3735 89.2268L34.8676 88.8937C34.5715 88.6962 34.263 88.3508 34.1026 88.0176L33.8435 87.487L33.8682 68.4852L33.9052 49.4957L36.41 57.7628C37.792 62.3158 38.956 66.0305 39.0547 66.1786C39.2892 66.5487 39.8525 66.7948 40.2474 66.5727C40.7147 66.1786 40.9507 66.3012 38.5323 58.3057C37.2861 54.2092 36.2496 50.7666 36.2126 50.6679C36.1756 50.5692 36.3236 50.7049 36.5211 50.9764C37.101 51.7414 37.5452 52.1116 38.3472 52.4694C38.9518 52.7532 39.2479 52.8149 40.0129 52.8026C40.5435 52.8026 41.1728 52.7038 41.4813 52.5928C42.7522 52.1239 43.8256 50.9394 44.1711 49.6438C44.2945 49.1626 44.3315 47.6573 44.3315 43.4374V37.8602L44.9238 37.6628C45.2446 37.5641 48.5638 36.5523 52.2901 35.4295C65.2212 31.518 65.1101 31.5551 65.3446 31.2836C65.8381 30.6913 65.431 29.8029 64.6659 29.8276C64.4438 29.8276 60.4584 30.9875 55.8067 32.4064ZM43.5789 34.0598C44.1465 34.356 45.405 35.4541 45.2816 35.5652C45.2693 35.5899 44.8991 35.7133 44.4796 35.849L43.7023 36.0834L43.3568 35.7873C42.8756 35.3801 42.4437 35.2444 41.7034 35.2444C40.9877 35.2444 40.2104 35.5528 39.8032 35.997C39.1616 36.7004 39.1492 36.8237 39.1492 42.3392C39.1492 47.2994 39.1616 47.4722 39.396 47.7066C39.7045 48.0151 40.2721 48.0274 40.6422 47.7189L40.9384 47.4845L41.0001 42.4132C41.0617 36.8854 41.0371 37.0952 41.7651 37.0952C42.4807 37.0952 42.4807 37.0952 42.4807 43.3263C42.4807 48.5827 42.456 49.0392 42.2463 49.4957C41.8021 50.4458 41.0371 50.9394 39.9883 50.927C39.0752 50.927 38.3102 50.4705 37.903 49.6561C37.6809 49.2243 37.6686 48.8418 37.6686 42.9932V36.7867L38.0264 36.0464C38.4829 35.1087 39.2726 34.3313 40.2104 33.9365C41.2221 33.5169 42.6041 33.5663 43.5789 34.0598ZM35.682 44.7083V48.8788L34.7443 45.8064C33.8435 42.8698 33.8065 42.7094 33.9546 42.1788C34.0286 41.8827 34.189 41.5125 34.3124 41.3521C34.5345 41.0436 35.2872 40.5624 35.5463 40.5501C35.6573 40.5501 35.6943 41.4632 35.682 44.7083Z" fill="#8D4953"/>
<path d="M60.927 58.6881C54.079 60.7734 48.0576 62.6119 47.5641 62.7476C47.0705 62.8956 46.5523 63.1301 46.4289 63.2535C45.886 63.7964 46.2932 64.7341 47.0828 64.7341C47.6751 64.7341 74.0802 56.7015 74.3393 56.4424C74.6848 56.0969 74.6231 55.4306 74.2406 55.1222C74.0555 54.9741 73.7964 54.8754 73.6484 54.8754C73.5126 54.8877 67.7874 56.6028 60.927 58.6881Z" fill="#8D4953"/>
<path d="M61.421 64.1296C52.5 66.8441 48.0457 68.2508 47.947 68.3988C47.5521 68.9294 47.947 69.9165 48.5639 69.9165C48.8724 69.9165 75.2528 61.9209 75.6847 61.6988C76.5608 61.2546 76.1906 60.0331 75.2035 60.0578C74.9567 60.0701 68.7503 61.8963 61.421 64.1296Z" fill="#8D4953"/>
<path d="M63.6419 69.0406C56.5841 71.1876 50.5751 73.0137 50.279 73.1001C49.3042 73.3962 49.0081 74.0008 49.5263 74.6548C49.6991 74.8769 49.8965 74.9756 50.1679 74.9756C50.4517 74.9756 76.1905 67.2761 77.2147 66.8813C77.3257 66.832 77.4985 66.6345 77.5972 66.4371C77.9303 65.7955 77.4738 65.0798 76.7581 65.1169C76.5977 65.1292 70.6998 66.8936 63.6419 69.0406Z" fill="#8D4953"/>
<path d="M64.5055 74.3708C55.5599 77.0853 51.1302 78.492 51.0315 78.64C50.7477 79.0102 50.8341 79.6148 51.1919 79.8986C51.377 80.0467 51.5991 80.1577 51.6855 80.1577C51.7842 80.1577 53.6227 79.6271 55.782 78.9732C59.8538 77.7516 75.4501 73.0135 77.56 72.3719C78.8926 71.9647 79.2505 71.7056 79.2505 71.1504C79.2505 70.6321 78.8679 70.2866 78.3004 70.299C78.0412 70.299 71.8348 72.1375 64.5055 74.3708Z" fill="#8D4953"/>
<path d="M53.332 41.3134C53.0755 41.4875 52.8953 41.759 52.8226 42.0582L52.7569 42.3613L53.5051 44.888L54.2549 47.4202L53.5764 47.6258C52.9459 47.8169 52.8744 47.8506 52.6527 48.0624C52.4995 48.2112 52.39 48.389 52.3426 48.56C52.2783 48.7904 52.2836 48.8851 52.394 49.2493C52.5044 49.6135 52.5525 49.6954 52.7339 49.8513C52.8682 49.9672 53.058 50.0543 53.2681 50.0931C53.57 50.1462 53.6482 50.1345 54.2787 49.9435L54.9626 49.7362L55.1466 50.3432L55.3305 50.9502L54.6466 51.1575C54.0214 51.3469 53.9446 51.3822 53.7319 51.5853C53.5877 51.7254 53.4746 51.9103 53.4219 52.0829C53.3448 52.3292 53.3505 52.4058 53.4659 52.7865C53.583 53.1728 53.6174 53.2286 53.8269 53.4001C54.2111 53.7054 54.4359 53.7157 55.2921 53.4803L56.0238 53.2766L56.2743 54.0261C56.5061 54.7331 56.5351 54.7906 56.7476 54.9913C57.3066 55.5268 58.2267 55.3866 58.5594 54.7134C58.747 54.3312 58.7386 54.1108 58.4944 53.3052L58.277 52.5878L59.5487 52.2024C60.8044 51.8219 60.8257 51.8154 61.0511 51.5965C61.3432 51.3092 61.4596 50.9425 61.385 50.5615C61.2987 50.1418 61.1626 49.9239 60.8683 49.742C60.3919 49.4405 60.2837 49.4492 58.8464 49.8848L57.5747 50.2701L57.3907 49.6631L57.2068 49.0561L58.8365 48.5623C60.6104 48.0247 60.9711 47.8672 61.5197 47.4057C62.4208 46.6446 62.9847 45.4254 63.0086 44.1951C63.0201 43.7518 62.9957 43.6327 62.7683 42.8822C62.5425 42.1372 62.4934 42.0135 62.2481 41.6661C61.426 40.4934 60.1328 39.8068 58.7053 39.7935C58.2962 39.791 58.1823 39.8195 55.8707 40.5079C54.5475 40.8968 53.4037 41.2615 53.332 41.3134ZM59.0547 42.2362C59.7665 42.3519 60.276 42.7819 60.5204 43.473C60.7836 44.2066 60.6125 44.9513 60.061 45.48C59.841 45.6973 59.8142 45.7054 58.1735 46.2206L56.5061 46.744L55.961 44.9451L55.4158 43.1461L57.0666 42.664L58.712 42.1834L59.0547 42.2362Z" fill="#8D4953"/>
</svg>
