<svg id="svg" xmlns="http://www.w3.org/2000/svg" xmlns:xlink="http://www.w3.org/1999/xlink" width="400" height="400" viewBox="0, 0, 400,400"><g id="svgg"><path id="path0" d="M14.773 39.495 C 9.991 40.968,4.124 46.255,1.848 51.142 L 0.015 55.078 0.015 184.766 L 0.015 314.453 1.842 318.376 C 4.163 323.361,7.889 327.087,12.874 329.408 L 16.797 331.235 141.602 331.242 L 266.406 331.250 266.406 308.991 L 266.406 286.732 263.612 283.072 C 231.682 241.241,263.502 179.722,316.797 180.247 C 368.236 180.753,398.111 238.699,368.987 281.475 L 364.844 287.560 364.844 309.405 L 364.844 331.250 374.023 331.242 C 384.448 331.234,388.787 329.843,393.690 324.940 C 395.143 323.487,397.153 320.533,398.158 318.376 L 399.985 314.453 399.992 227.584 L 400.000 140.715 359.961 140.466 C 314.853 140.185,315.340 140.246,307.884 133.864 C 298.650 125.960,298.458 124.814,298.447 77.539 L 298.438 38.281 158.398 38.336 C 40.018 38.382,17.805 38.561,14.773 39.495 M310.938 77.491 C 310.938 122.901,310.846 122.296,318.359 126.441 C 320.901 127.844,400.000 128.937,400.000 127.570 C 400.000 127.228,379.961 106.911,355.469 82.422 L 310.938 37.896 310.938 77.491 M267.969 119.531 L 267.969 131.250 158.594 131.250 L 49.219 131.250 49.219 119.531 L 49.219 107.813 158.594 107.813 L 267.969 107.813 267.969 119.531 M305.469 193.335 C 271.309 200.920,253.882 236.316,268.836 267.741 C 289.329 310.805,352.844 305.168,366.187 259.101 C 376.964 221.891,342.922 185.018,305.469 193.335 M234.375 200.781 L 234.375 207.031 141.797 207.031 L 49.219 207.031 49.219 200.781 L 49.219 194.531 141.797 194.531 L 234.375 194.531 234.375 200.781 M157.813 241.797 L 157.813 247.656 103.516 247.656 L 49.219 247.656 49.219 241.797 L 49.219 235.938 103.516 235.938 L 157.813 235.938 157.813 241.797 M278.906 330.040 C 278.906 347.463,279.170 361.720,279.492 361.721 C 279.814 361.722,288.112 358.506,297.931 354.575 L 315.784 347.429 332.697 354.156 C 341.999 357.856,350.225 361.109,350.977 361.385 C 352.264 361.857,352.344 360.048,352.344 330.209 L 352.344 298.531 345.898 301.932 C 326.369 312.237,303.194 311.944,283.891 301.149 L 278.906 298.361 278.906 330.040 " stroke="none" fill="#8D4953" fill-rule="evenodd"></path></g></svg>