<svg width="120" height="120" viewBox="0 0 120 120" fill="none" xmlns="http://www.w3.org/2000/svg">
<rect width="120" height="120" fill="white"/>
<path d="M73.4118 23.3349C72.9626 23.5106 72.279 23.9597 71.9079 24.3307C70.7361 25.4242 70.5603 25.9514 70.4822 28.4899L70.4041 30.7549L69.2908 30.3644C66.498 29.3881 64.2129 28.9976 60.4826 28.8999C57.3772 28.8023 56.5374 28.8609 54.4476 29.2123C44.6238 30.8916 36.2061 37.1986 31.8508 46.1222C28.4134 53.2103 27.8666 61.8214 30.4055 69.3C31.1086 71.3698 31.1868 71.7604 31.1868 73.5373V75.5094H28.5111C26.1869 75.5094 25.7377 75.568 24.9761 75.9195C23.5308 76.6224 22.7691 78.2431 23.0621 79.9419C23.1988 80.5863 24.0972 81.5821 30.5618 88.0844C34.7023 92.224 38.1982 95.5826 38.5498 95.7388C39.3701 96.0903 40.4052 96.0903 41.3036 95.7193C41.7528 95.524 43.3543 94.079 45.5417 91.8921L49.0767 88.3969L50.2095 88.7874C53.1586 89.7832 55.0726 90.0566 59.506 90.0566C63.1778 90.0566 63.959 89.998 65.7167 89.6075C77.8647 86.8933 86.6535 78.2236 89.5244 66.1368C89.8955 64.5161 90.0322 63.364 90.1104 60.6694C90.2275 56.8812 90.0518 54.9481 89.2705 51.863L88.7628 49.8908L92.1806 46.4542C94.6805 43.9157 95.6375 42.8027 95.8328 42.2365C96.3601 40.5962 95.5984 38.6241 94.1336 37.9016C93.5282 37.6087 92.8642 37.5111 90.6182 37.472L87.8253 37.4134V32.2194C87.8253 28.7242 87.7472 26.7715 87.5909 26.2248C87.4347 25.7171 86.9855 25.0532 86.3605 24.4479C85.7551 23.8231 85.091 23.3739 84.5832 23.2177C84.0364 23.0615 82.22 22.9834 79.017 23.0029C75.0133 23.0029 74.1149 23.0615 73.4118 23.3349ZM84.427 26.381L85.091 27.0449V33.2153C85.091 39.1318 85.1105 39.4051 85.4816 39.7761C85.8332 40.1276 86.1261 40.1667 89.2705 40.1667C92.1025 40.1667 92.7275 40.2252 92.9813 40.4791C93.1571 40.6353 93.2938 40.9282 93.2938 41.1039C93.2938 41.5335 79.8373 54.9872 79.2514 55.1434C78.8608 55.241 77.9038 54.3623 71.8884 48.3482C64.8183 41.2797 64.4668 40.8501 65.3457 40.3619C65.5605 40.2448 67.1425 40.1667 69.0565 40.1667H72.3766L72.7673 39.659C73.1579 39.1513 73.1774 38.917 73.1774 33.0981C73.1774 29.349 73.2555 26.9082 73.3727 26.6934C73.8414 25.8147 74.3883 25.7366 79.2123 25.7171H83.7629L84.427 26.381ZM66.1464 32.317C67.3768 32.6295 68.8416 33.0786 69.3689 33.2934L70.3455 33.6839L70.4041 35.5584L70.4627 37.4525L68.451 37.3939C67.1229 37.3353 65.912 37.1596 64.8769 36.8667C62.7481 36.2614 58.217 36.0856 55.6976 36.5152C44.5456 38.4679 36.2647 48.1529 36.2647 59.2244V61.0599H35.7374C34.6241 61.0599 33.6867 61.4895 32.7492 62.4072L31.7922 63.325L31.6555 62.4658C31.5774 61.9972 31.5774 60.1422 31.636 58.3653C31.7141 55.573 31.8117 54.7724 32.3195 52.8588C35.1905 41.7678 43.7449 33.8401 55.014 31.8484C56.0101 31.6727 57.6897 31.6141 60.1896 31.6531C63.5684 31.7117 64.0957 31.7703 66.1464 32.317ZM61.9083 39.1318C62.4942 39.2099 62.6309 39.3075 62.5137 39.5613C62.1622 40.401 62.2012 41.8655 62.5918 42.627C63.0996 43.5838 76.9858 57.4475 77.728 57.7209C78.0405 57.838 78.6655 57.9357 79.1537 57.9357H80.0131V59.8102C80.0131 61.9386 79.4858 64.8285 78.7631 66.6835C76.0484 73.5763 70.3455 78.3408 63.1582 79.7076C61.6349 80.0005 57.6702 80.1177 57.0842 79.8833C56.8694 79.8052 56.7718 79.5123 56.7718 79.0047C56.7718 78.165 56.264 76.9739 55.6585 76.4467C54.8382 75.7047 53.9398 75.5094 51.2251 75.5094H48.5885L48.5299 69.8858C48.4713 63.735 48.4713 63.7155 47.1823 62.4463C46.0104 61.2747 45.6394 61.1575 42.1824 61.099L38.999 61.0208V59.2049C38.999 50.6914 44.7214 42.8222 52.9438 40.069C55.639 39.1708 59.6232 38.7412 61.9083 39.1318ZM86.8097 53.2884C87.5519 56.686 87.6105 62.1339 86.9464 65.1604C85.7941 70.3935 83.3723 74.9822 79.7592 78.7703C73.8414 84.9407 66.0878 87.9478 57.4163 87.3815C55.346 87.2643 51.7719 86.6004 51.4594 86.288C51.3813 86.2099 52.1625 85.2922 53.2172 84.2377L55.1117 82.3437L56.2835 82.5389C56.928 82.6366 58.3928 82.7342 59.5256 82.7342C70.9119 82.7342 80.5209 74.5917 82.4544 63.3054C82.6888 61.9191 82.7669 60.5717 82.7083 58.6582L82.6497 55.9635L84.4074 54.128C85.384 53.1322 86.2628 52.2925 86.38 52.2925C86.4972 52.273 86.6925 52.7417 86.8097 53.2884ZM45.1902 64.2622L45.737 64.7309L45.8347 71.116L45.9323 77.5011L46.401 77.8721C46.8112 78.2041 47.2018 78.2431 50.2095 78.2431C53.725 78.2431 54.0375 78.3212 54.0375 79.1218C54.0375 79.3757 51.7329 81.8165 47.1237 86.4247C41.1083 92.4388 40.1513 93.3175 39.7607 93.2199C39.0966 93.0441 25.7182 79.61 25.7182 79.1023C25.7182 78.3212 26.0307 78.2431 29.6048 78.2431C32.8469 78.2431 33.0422 78.2236 33.4718 77.8135L33.921 77.4035V71.3698C33.921 65.0042 33.9796 64.5161 34.839 64.0084C35.0538 63.8912 37.0655 63.7936 39.9169 63.7936C44.6238 63.7936 44.6433 63.7936 45.1902 64.2622Z" fill="#8D4953"/>
<path d="M56.0754 51.0467C55.6984 51.1596 55.3784 51.4134 55.1792 51.7378L54.9872 52.0692L54.9659 55.2917L54.9445 58.5213H54.0413C53.202 58.5213 53.1024 58.5354 52.7539 58.7046C52.5121 58.8245 52.3129 58.9937 52.192 59.1771C52.0284 59.4239 52 59.5367 52 60.0021C52 60.4675 52.0284 60.5803 52.192 60.8271C52.3129 61.0105 52.5121 61.1797 52.7539 61.2996C53.1024 61.4688 53.202 61.4829 54.0413 61.4829H54.9516V62.2586V63.0342H54.0413C53.2091 63.0342 53.1024 63.0483 52.7681 63.2105C52.5405 63.3233 52.3343 63.4996 52.2063 63.683C52.0213 63.9439 52 64.0355 52 64.5221C52 65.0157 52.0213 65.0933 52.2134 65.3683C52.569 65.8619 52.8393 65.9535 53.9701 65.9817L54.9374 66.0029L54.9659 66.9689C54.9872 67.8786 55.0014 67.9562 55.1863 68.2664C55.67 69.0914 56.8435 69.2536 57.4979 68.5837C57.8677 68.203 57.9388 67.942 57.9388 66.9125V65.9958H59.6316C61.303 65.9958 61.3314 65.9958 61.6871 65.8196C62.1494 65.5869 62.4267 65.199 62.4765 64.7266C62.5263 64.2048 62.441 63.9016 62.1494 63.5842C61.6799 63.0624 61.5448 63.0342 59.6316 63.0342H57.9388V62.2586V61.4829H60.1081C62.4694 61.4829 62.9673 61.4265 63.8065 61.081C65.1863 60.5098 66.3243 59.2828 66.808 57.8514C66.9858 57.3366 67 57.1886 67 56.2296C67 55.2776 66.9858 55.1154 66.8151 54.6218C66.2461 52.9577 64.9232 51.6955 63.1878 51.1737C62.6899 51.0256 62.5405 51.0185 59.468 51.0044C57.7112 50.9903 56.1821 51.0115 56.0754 51.0467ZM62.7112 54.1564C63.5363 54.5443 63.9986 55.2282 64.0413 56.1238C64.091 57.0757 63.6074 57.8867 62.7397 58.3097C62.3912 58.486 62.3556 58.486 60.165 58.5072L57.9388 58.5283V56.2296V53.9308L60.1294 53.9519L62.3129 53.9731L62.7112 54.1564Z" fill="#8D4953"/>
</svg>
