<svg id="svg" xmlns="http://www.w3.org/2000/svg" xmlns:xlink="http://www.w3.org/1999/xlink" width="400" height="400" viewBox="0, 0, 400,400"><g id="svgg"><path id="path0" d="M291.513 10.900 C 286.920 12.595,282.370 15.832,273.438 23.759 C 260.833 34.947,255.253 35.779,237.676 29.096 C 229.590 26.022,228.824 26.139,230.739 30.155 C 240.805 51.265,267.902 50.823,277.734 29.388 C 283.651 16.489,289.527 15.884,313.228 25.739 C 320.019 28.563,321.135 28.113,318.781 23.498 C 313.477 13.101,301.075 7.371,291.513 10.900 M298.094 52.539 C 297.933 53.076,294.775 93.770,291.078 142.969 C 287.381 192.168,284.163 233.916,283.927 235.742 L 283.498 239.063 270.655 239.063 L 257.813 239.063 257.813 186.328 C 257.813 157.324,257.549 133.606,257.227 133.621 C 256.904 133.635,239.766 145.511,219.141 160.011 L 181.641 186.375 181.435 159.905 C 181.264 137.878,181.050 133.503,180.159 133.845 C 179.571 134.071,162.532 145.884,142.296 160.097 C 122.060 174.309,105.319 185.937,105.095 185.938 C 104.871 185.938,104.688 174.160,104.688 159.766 C 104.688 144.176,104.394 133.594,103.962 133.594 C 103.563 133.594,86.073 145.647,65.095 160.378 L 26.953 187.162 26.752 240.847 L 26.552 294.531 13.276 294.531 L 0.000 294.531 0.000 342.578 L 0.000 390.625 200.000 390.625 L 400.000 390.625 400.000 342.578 L 400.000 294.531 392.578 294.531 L 385.156 294.531 385.156 266.797 L 385.156 239.063 370.369 239.063 L 355.581 239.063 355.132 234.961 C 354.636 230.427,342.962 56.129,342.966 53.320 L 342.969 51.563 320.679 51.563 C 303.524 51.563,298.321 51.788,298.094 52.539 M125.000 281.250 L 125.000 308.594 95.313 308.594 L 65.625 308.594 65.625 281.250 L 65.625 253.906 95.313 253.906 L 125.000 253.906 125.000 281.250 M228.906 281.250 L 228.906 308.594 199.219 308.594 L 169.531 308.594 169.531 281.250 L 169.531 253.906 199.219 253.906 L 228.906 253.906 228.906 281.250 M334.375 281.250 L 334.375 308.594 304.688 308.594 L 275.000 308.594 275.000 281.250 L 275.000 253.906 304.688 253.906 L 334.375 253.906 334.375 281.250 " stroke="none" fill="#8D4953" fill-rule="evenodd"></path></g></svg>