<svg width="120" height="120" viewBox="0 0 120 120" fill="none" xmlns="http://www.w3.org/2000/svg">
<rect width="120" height="120" fill="white"/>
<path d="M65.7747 32.1049C61.7935 32.5864 55.9791 34.5677 55.4051 35.6047C55.0903 36.2158 55.2014 36.9194 55.6828 37.3823C56.2384 37.9564 56.8494 37.9564 57.9605 37.4008C60.0529 36.3454 63.4786 35.3825 66.108 35.1047L67.4412 34.9566V36.6787C67.4412 38.2712 67.4783 38.4563 67.9042 38.8637C68.1819 39.16 68.5708 39.3266 68.9226 39.3266C69.2744 39.3266 69.6633 39.16 69.9411 38.8637C70.3669 38.4563 70.404 38.2712 70.404 36.6787V34.9566L71.7557 35.1047C74.4778 35.3825 77.7738 36.3454 80.1255 37.512C81.5328 38.2341 83.9956 39.8266 84.9029 40.6228L85.6066 41.2339L84.3844 42.4746C82.9956 43.9189 82.829 44.5485 83.6437 45.3447C84.44 46.1595 85.0696 45.9928 86.5139 44.5855L87.7731 43.3819L88.4767 44.2337C91.1617 47.4186 93.2542 52.2886 93.7912 56.6587L94.0319 58.4919L92.1987 58.5845C90.5506 58.6585 90.3284 58.7141 90.0137 59.1215C89.5322 59.714 89.5692 60.5473 90.1248 61.0843C90.5321 61.5102 90.7173 61.5472 92.3098 61.5472H94.0319L93.8837 62.8805C93.606 65.621 92.6431 68.9171 91.4765 71.2687C90.7543 72.676 89.1619 75.1388 88.3656 76.0462L87.7546 76.7498L86.5139 75.5277C85.0696 74.1389 84.44 73.9722 83.6437 74.787C82.829 75.5832 82.9956 76.2128 84.403 77.6572L85.6066 78.9163L84.4955 79.8237C81.1995 82.4901 76.1073 84.5826 71.8483 85.027L70.404 85.1751V83.453C70.404 81.8605 70.3669 81.6754 69.9411 81.268C69.3485 80.6569 68.4967 80.6569 67.9042 81.268C67.4783 81.6754 67.4412 81.8605 67.4412 83.453V85.2122L66.5709 85.1196C64.0341 84.8974 60.7565 84.0085 58.3863 82.916C56.7568 82.1753 56.2754 82.1383 55.6828 82.7494C55.1273 83.2864 55.0718 84.1011 55.5532 84.6752C55.9421 85.1566 58.7752 86.3973 60.9232 87.0268C63.7748 87.8416 65.6451 88.1008 68.9226 88.1008C73.4963 88.1008 76.8665 87.3416 80.9588 85.4158C84.1252 83.916 86.5695 82.1939 88.9026 79.8607C99.8092 68.8985 99.6796 50.9184 88.6249 40.0118C84.6066 36.0306 79.4589 33.4011 73.7371 32.3827C71.7557 32.0309 67.6079 31.8827 65.7747 32.1049Z" fill="#8D4953"/>
<path d="M41.2395 41.2709C40.9433 41.5487 40.7766 41.9376 40.7766 42.2894C40.7766 42.6412 40.9433 43.0301 41.2395 43.3078L41.684 43.7708H50.2204H58.7568L59.2012 43.3078C59.4975 43.0301 59.6641 42.6412 59.6641 42.2894C59.6641 41.9376 59.4975 41.5487 59.2012 41.2709L58.7568 40.808H50.2204H41.684L41.2395 41.2709Z" fill="#8D4953"/>
<path d="M75.8479 51.0294L71.9038 54.9365L70.9409 54.6402C68.0522 53.6958 64.8487 54.8994 63.6451 57.3807C62.9414 58.8066 62.8303 60.5101 63.3303 62.01L63.7006 63.1025L62.9785 63.8988C62.1082 64.8432 61.9971 65.6949 62.6822 66.3245C63.3673 66.9726 64.1636 66.8615 65.1265 65.9727L65.9597 65.195L66.9041 65.5098C69.7558 66.4171 72.9222 65.232 74.1814 62.8063C74.9035 61.3619 75.0332 59.6583 74.5147 58.1214L74.1258 57.0104L78.0144 53.1033C81.4586 49.6406 81.8845 49.1406 81.8845 48.6221C81.8845 48.2147 81.7178 47.8629 81.4216 47.5666C81.1253 47.2704 80.7735 47.1037 80.3661 47.1037C79.8476 47.1037 79.3476 47.5296 75.8479 51.0294ZM70.3853 57.6215C71.4038 58.1214 71.7926 58.8066 71.7926 60.0657C71.7926 61.3249 71.4038 62.01 70.3853 62.51C69.0891 63.1766 67.2559 62.7877 66.4412 61.6767C66.1449 61.2879 66.0523 60.862 66.0523 60.0657C66.0523 59.2695 66.1449 58.8436 66.4412 58.4547C66.9597 57.7511 67.9226 57.2881 68.9225 57.2881C69.3854 57.2881 70.0335 57.4363 70.3853 57.6215Z" fill="#8D4953"/>
<path d="M32.3511 50.1591C32.0548 50.4369 31.8882 50.8257 31.8882 51.1776C31.8882 51.5294 32.0548 51.9182 32.3511 52.196L32.7955 52.6589H44.5539C52.9052 52.6589 56.4419 52.6034 56.7752 52.4552C57.3122 52.196 57.7196 51.3627 57.5344 50.8072C57.4604 50.6035 57.2382 50.2517 57.016 50.0665C56.6456 49.7147 56.3123 49.6962 44.7206 49.6962H32.7955L32.3511 50.1591Z" fill="#8D4953"/>
<path d="M23.4629 59.0475C23.1667 59.3253 23 59.7142 23 60.066C23 60.4178 23.1667 60.8067 23.4629 61.0844L23.9073 61.5474H39.2951H54.6829L55.1273 61.0844C55.7383 60.4919 55.7383 59.6401 55.1273 59.0475L54.6829 58.5846H39.2951H23.9073L23.4629 59.0475Z" fill="#8D4953"/>
<path d="M32.3511 67.9357C32.0548 68.2135 31.8882 68.6023 31.8882 68.9542C31.8882 69.306 32.0548 69.6949 32.3511 69.9726L32.7955 70.4355H44.5539C52.9052 70.4355 56.4419 70.38 56.7752 70.2319C57.3122 69.9726 57.7196 69.1393 57.5344 68.5838C57.4604 68.3801 57.2382 68.0283 57.016 67.8431C56.6456 67.4913 56.3123 67.4728 44.7206 67.4728H32.7955L32.3511 67.9357Z" fill="#8D4953"/>
<path d="M41.2395 76.8239C40.9433 77.1017 40.7766 77.4905 40.7766 77.8424C40.7766 78.1942 40.9433 78.583 41.2395 78.8608L41.684 79.3237H50.2204H58.7568L59.2012 78.8608C59.4975 78.583 59.6641 78.1942 59.6641 77.8424C59.6641 77.4905 59.4975 77.1017 59.2012 76.8239L58.7568 76.361H50.2204H41.684L41.2395 76.8239Z" fill="#8D4953"/>
</svg>
