<svg id="svg" xmlns="http://www.w3.org/2000/svg" xmlns:xlink="http://www.w3.org/1999/xlink" width="400" height="400" viewBox="0, 0, 400,400"><g id="svgg"><path id="path0" d="M14.844 151.450 L 14.844 227.344 28.202 227.344 C 42.829 227.344,45.540 226.726,48.375 222.744 C 50.352 219.967,85.938 102.633,85.938 98.890 C 85.938 92.300,83.161 89.468,72.592 85.280 C 58.484 79.690,43.411 76.641,26.758 76.009 L 14.844 75.557 14.844 151.450 M198.476 94.216 C 171.473 101.474,135.069 140.712,135.173 162.446 C 135.258 180.081,156.518 182.667,173.978 167.168 C 187.772 154.923,207.522 145.899,212.701 149.475 C 213.665 150.140,237.094 171.449,264.765 196.827 C 298.076 227.377,315.632 242.966,316.718 242.961 C 321.344 242.940,331.087 236.122,335.413 229.881 L 337.541 226.810 319.268 176.881 L 300.994 126.953 260.750 110.859 C 211.853 91.305,210.576 90.964,198.476 94.216 M363.005 94.602 C 343.143 95.944,313.562 103.686,308.776 108.796 C 306.756 110.952,305.469 114.219,305.469 117.189 C 305.469 119.916,348.662 237.888,350.645 240.577 C 354.227 245.434,355.147 245.680,370.759 245.973 L 385.156 246.243 385.156 170.493 L 385.156 94.744 381.532 94.247 C 377.470 93.690,376.113 93.716,363.005 94.602 M75.876 158.401 C 67.979 184.503,61.367 206.252,61.184 206.732 C 59.809 210.326,120.736 267.310,155.469 294.916 C 196.427 327.470,202.361 330.073,209.379 318.562 C 214.047 310.905,212.363 307.949,191.458 287.116 C 174.393 270.109,172.849 268.088,175.156 265.781 C 177.136 263.802,179.132 265.451,199.615 285.991 C 222.382 308.822,224.113 310.156,230.955 310.156 C 239.636 310.156,245.675 304.052,245.640 295.313 C 245.615 289.055,244.887 288.077,224.254 266.572 C 206.050 247.599,204.270 245.261,206.406 243.125 C 208.512 241.020,210.923 243.092,232.817 265.820 C 245.337 278.818,256.842 290.132,258.384 290.962 C 268.207 296.248,280.306 289.863,281.094 278.977 C 281.679 270.888,281.738 270.966,255.432 245.302 C 231.681 222.130,229.927 220.039,232.469 217.930 C 234.683 216.092,236.952 217.990,264.174 244.447 C 292.098 271.586,293.459 272.656,300.064 272.656 C 310.865 272.656,318.263 260.086,312.852 250.926 C 311.723 249.015,226.752 170.374,212.475 158.026 L 209.561 155.506 205.166 156.651 C 196.808 158.828,188.633 163.631,178.316 172.427 C 163.082 185.415,145.542 188.036,135.542 178.818 C 122.049 166.381,128.474 143.281,152.600 117.494 L 158.735 110.938 124.485 110.940 L 90.234 110.942 75.876 158.401 " stroke="none" fill="#8D4953" fill-rule="evenodd"></path></g></svg>