<svg width="120" height="120" viewBox="0 0 120 120" fill="none" xmlns="http://www.w3.org/2000/svg">
<rect width="120" height="120" fill="white"/>
<path d="M42.4679 35.0336C41.6756 35.1607 40.5311 35.5129 39.8268 35.865C36.452 37.5084 34.476 41.3527 35.1216 45.0308C35.6694 48.2001 37.7432 51.6043 41.2941 55.1942C42.9766 56.8963 43.1331 56.9941 43.945 56.8474C44.3363 56.7691 45.2656 55.9572 46.6057 54.4997C49.4131 51.4575 51.1739 48.5816 51.9173 45.8231C52.1032 45.1384 52.1423 44.7666 52.1423 43.583C52.1325 42.3309 52.1032 42.0668 51.8782 41.3038C50.9587 38.291 48.6697 36.0118 45.7938 35.2683C45.0308 35.0629 43.1331 34.9357 42.4679 35.0336ZM45.3243 38.3986C47.8578 39.2692 49.4816 42.0179 48.9729 44.5808C48.5425 46.8111 46.7426 49.8142 44.3363 52.3379L43.5928 53.1205L42.8494 52.3379C40.5115 49.8924 38.7116 46.9285 38.2617 44.796C37.8802 43.0157 38.3595 41.2549 39.5627 39.9441C40.4235 39.0148 41.5191 38.3986 42.7125 38.1638C43.2505 38.066 44.7276 38.1931 45.3243 38.3986Z" fill="#8D4953"/>
<path d="M42.8103 41.3627C42.3309 41.5192 41.5092 42.3605 41.3625 42.8594C41.0886 43.7789 41.2843 44.5125 41.9788 45.1973C42.9765 46.2048 44.3558 46.1853 45.2851 45.1484C46.1655 44.1702 46.1655 42.9963 45.2851 42.0181C44.6493 41.3138 43.7395 41.0693 42.8103 41.3627Z" fill="#8D4953"/>
<path d="M75.3354 56.9451C71.9802 57.4636 69.388 59.6547 68.2826 62.8828C66.9131 66.9032 68.9184 71.7844 74.142 77.1058C75.5311 78.5242 75.9126 78.7981 76.4506 78.7981C76.9886 78.7981 77.3701 78.5535 78.3874 77.5362C81.6937 74.2495 83.924 70.8453 84.7457 67.8618C84.9707 67.0401 85 66.7271 85 65.4946C85 64.2327 84.9707 63.9784 84.7359 63.2056C83.8262 60.1927 81.5372 57.9233 78.6613 57.1799C77.8983 56.9745 76.0006 56.8473 75.3354 56.9451ZM78.1918 60.3101C79.8058 60.8677 81.1655 62.2567 81.6742 63.8806C82.0165 64.9566 81.9676 66.3456 81.5666 67.5195C80.8525 69.6226 79.2189 72.1366 77.2038 74.2495L76.4604 75.032L75.7756 74.3082C73.829 72.2637 72.0291 69.5639 71.3933 67.6955C70.914 66.2771 70.8748 65.0837 71.2661 63.8219C71.853 61.9633 73.5747 60.4666 75.58 60.0754C76.118 59.9775 77.5951 60.1047 78.1918 60.3101Z" fill="#8D4953"/>
<path d="M75.6874 63.2841C74.8755 63.5776 74.1125 64.6145 74.1125 65.4362C74.1125 66.7078 75.2179 67.8425 76.4602 67.8425C77.6732 67.8425 78.8079 66.7078 78.8079 65.4949C78.8079 64.8786 78.5829 64.3797 78.0743 63.8808C77.3895 63.1863 76.5385 62.9711 75.6874 63.2841Z" fill="#8D4953"/>
<path d="M42.6536 58.7843C41.2156 59.4495 40.8048 61.1907 41.8123 62.3645C42.6536 63.3525 44.0035 63.509 44.9817 62.746L45.3436 62.4526L51.9758 62.4819L58.608 62.5113L59.1949 62.746C59.6253 62.9221 59.9579 63.1569 60.4275 63.6264C61.2883 64.4872 61.5328 65.0937 61.5328 66.3262C61.5328 67.5588 61.2883 68.1652 60.4275 69.0261C59.9579 69.4956 59.6253 69.7304 59.1949 69.9064L58.608 70.1412L49.6575 70.1901L40.707 70.239L39.9244 70.5031C38.7897 70.8944 37.9778 71.4031 37.0876 72.2932C36.1975 73.1834 35.679 74.0051 35.3073 75.13C35.0823 75.8245 35.053 76.0691 35.053 77.2332C35.053 78.3972 35.0823 78.6418 35.3073 79.3363C35.679 80.4612 36.1975 81.2829 37.0876 82.1731C37.9778 83.0632 38.7995 83.5719 39.9244 83.9632L40.707 84.2273L57.7276 84.2566C74.3864 84.2762 74.7483 84.286 74.9439 84.4718C75.345 84.8435 76.0591 85.0881 76.6167 85.0294C77.9861 84.8925 78.9056 83.836 78.7785 82.535C78.7198 81.8698 78.5535 81.4981 78.1133 81.0677C77.2427 80.2167 75.9026 80.1482 74.9929 80.9112L74.719 81.1459L57.9037 81.1264L41.0885 81.097L40.345 80.7351C39.4549 80.2949 38.9071 79.7276 38.4767 78.8178C38.193 78.2211 38.1637 78.0744 38.1637 77.2332C38.1637 76.3919 38.193 76.2452 38.4767 75.6485C38.9071 74.7387 39.4549 74.1714 40.345 73.7312L41.0885 73.3693L50.039 73.3204C60.0362 73.2519 59.3319 73.3106 60.8579 72.5476C62.2958 71.8335 63.2642 70.8357 63.9881 69.3586C64.9565 67.3631 64.9565 65.2698 63.9881 63.2938C63.2349 61.7678 62.2763 60.8092 60.7601 60.0658C59.2536 59.3321 59.2438 59.3321 51.8584 59.3321H45.3436L44.9817 59.0484C44.2676 58.5006 43.4655 58.4028 42.6536 58.7843Z" fill="#8D4953"/>
</svg>
