<svg width="120" height="120" viewBox="0 0 120 120" fill="none" xmlns="http://www.w3.org/2000/svg">
<rect width="120" height="120" fill="white"/>
<path d="M48.1461 32.1758C47.3289 32.4046 46.599 32.7968 46.0106 33.3416C45.7273 33.6031 43.788 35.7494 41.6852 38.1137C37.7411 42.5481 37.3925 43.0166 37.1201 44.215C37.0438 44.5419 37.0002 50.5779 37.0002 62.1922C37.0002 81.3787 36.9676 80.3328 37.654 81.6947C38.0789 82.5336 39.103 83.5578 39.942 83.9827C41.293 84.6691 40.6937 84.6364 53.7245 84.6364H65.6112L65.9925 85.0286C66.9404 86.031 68.7708 87.0334 70.4487 87.491C71.7779 87.8396 74.0223 87.8396 75.3515 87.491C76.3975 87.2077 77.8029 86.5758 78.5874 86.0419C80.2217 84.9306 81.6817 83.0784 82.3681 81.248C82.9891 79.6028 83.1743 77.2821 82.8257 75.626C82.0739 72.1287 79.6116 69.2959 76.3103 68.1301L75.4605 67.825V52.2666V36.7082L75.2099 35.902C74.6106 34.028 73.1725 32.677 71.244 32.1758C70.3397 31.9361 49.0177 31.947 48.1461 32.1758ZM71.3421 34.4856C72.0829 34.8233 72.7693 35.5642 73.0526 36.3051L73.2814 36.9261V52.2121V67.4982L72.2246 67.5635C69.7949 67.7161 67.5396 68.7402 65.7855 70.4835C64.064 72.194 63.0726 74.275 62.8329 76.7156C62.6368 78.6331 62.9309 80.1693 63.8788 82.3266C63.9224 82.4356 61.7651 82.4574 52.7875 82.4356L41.6307 82.4029L41.1187 82.1523C40.4649 81.8254 39.8112 81.1717 39.4844 80.518L39.2338 80.0059L39.2011 62.4319L39.1793 44.8688H42.8619H46.5445L47.111 44.5855C47.7321 44.2804 48.157 43.8337 48.4512 43.18C48.6364 42.7878 48.6582 42.3737 48.6582 38.5277C48.6582 35.27 48.6908 34.3113 48.7998 34.2677C48.8652 34.235 53.8552 34.2132 59.8803 34.2241L70.83 34.2459L71.3421 34.4856ZM46.4246 42.3302C46.392 42.4718 46.2612 42.6025 46.1196 42.6352C45.9888 42.6679 44.6923 42.6788 43.2432 42.6679L40.5957 42.6352L43.5156 39.3558L46.4246 36.0763L46.4573 39.0834C46.4682 40.7395 46.4573 42.1994 46.4246 42.3302ZM75.1881 70.0368C78.9252 71.2244 81.1696 74.6237 80.7774 78.5133C80.3198 83.1002 75.8636 86.3796 71.353 85.4426C69.686 85.1049 68.4766 84.4403 67.2346 83.1764C65.7092 81.6402 64.9901 79.8643 64.9901 77.6634C64.9901 75.4299 65.7092 73.6867 67.289 72.096C68.5093 70.8648 69.577 70.2656 71.2658 69.8624C72.2246 69.6445 74.2075 69.7317 75.1881 70.0368Z" fill="#8D4953"/>
<path d="M47.6121 48.791C47.2852 48.9217 46.9148 49.4229 46.9148 49.7389C46.9148 50.0766 47.1 50.4253 47.3942 50.665C47.6012 50.8393 48.2658 50.8611 56.6442 50.8611H65.6764L65.9924 50.5451C66.548 49.9895 66.3519 49.0525 65.6328 48.8019C65.2188 48.6602 47.9607 48.6493 47.6121 48.791Z" fill="#8D4953"/>
<path d="M47.2526 57.0824C46.8059 57.5291 46.795 58.0194 47.2308 58.5096L47.5468 58.8692L54.1275 58.9019C57.7447 58.9237 60.8499 58.9019 61.0351 58.8692C61.9176 58.7167 62.2553 57.6925 61.6343 57.0606L61.3184 56.7446H54.4544H47.5903L47.2526 57.0824Z" fill="#8D4953"/>
<path d="M64.587 57.0171C64.173 57.3657 64.0859 57.7253 64.282 58.2155C64.4672 58.6622 65.0773 58.9782 65.5131 58.8693C66.3194 58.6731 66.5809 57.6599 65.9925 57.0606C65.5785 56.6466 65.0446 56.6357 64.587 57.0171Z" fill="#8D4953"/>
<path d="M47.7102 64.7744C47.5794 64.7962 47.3397 64.9705 47.1872 65.1449C46.8059 65.6025 46.8277 66.1036 47.2308 66.5394L47.5467 66.8772H56.6116H65.6764L65.9924 66.5612C66.6134 65.9402 66.2975 64.9378 65.4258 64.7635C65.0445 64.6873 48.0915 64.6981 47.7102 64.7744Z" fill="#8D4953"/>
<path d="M47.4705 72.9132C46.7297 73.3272 46.7514 74.4058 47.5141 74.7763C47.8301 74.9179 48.7126 74.9397 54.2147 74.9397C61.1223 74.9397 61.1114 74.9397 61.3947 74.3296C61.6452 73.7848 61.4273 73.1202 60.9153 72.8914C60.4795 72.6953 47.8301 72.7171 47.4705 72.9132Z" fill="#8D4953"/>
<path d="M76.1143 73.3925C75.21 74.3186 74.0224 76.1708 73.02 78.23C72.5406 79.2323 72.1048 80.0604 72.0612 80.0604C72.0176 80.0604 71.4184 79.7008 70.7429 79.265C68.8907 78.0557 68.5639 77.8813 68.1389 77.8813C67.3545 77.8813 66.8642 78.6767 67.2237 79.374C67.3436 79.6137 68.0409 80.1149 69.7079 81.1717C72.497 82.9476 72.4535 82.9258 72.8348 82.8387C73.3033 82.7406 73.543 82.4029 74.0986 81.0954C75.1991 78.5241 76.3213 76.5521 77.6178 74.9505C78.0863 74.3731 78.1844 74.166 78.1844 73.8174C78.1844 73.2291 77.7159 72.7606 77.1384 72.7606C76.7789 72.7606 76.6481 72.8477 76.1143 73.3925Z" fill="#8D4953"/>
</svg>
