<svg id="svg" xmlns="http://www.w3.org/2000/svg" xmlns:xlink="http://www.w3.org/1999/xlink" width="400" height="400" viewBox="0, 0, 400,400"><g id="svgg"><path id="path0" d="M5.724 73.195 C 4.790 73.379,3.120 74.436,2.013 75.544 L 0.000 77.557 -0.000 181.250 L -0.000 284.943 2.041 286.984 C 4.741 289.684,6.968 290.011,20.625 289.708 L 32.163 289.453 34.314 287.044 C 35.783 285.398,36.771 283.048,37.433 279.622 C 45.818 236.231,109.610 231.492,124.727 273.138 C 125.736 275.920,126.563 278.948,126.563 279.867 C 126.562 283.124,129.633 288.109,132.187 289.000 C 136.289 290.430,236.033 290.151,239.506 288.700 C 244.837 286.473,244.531 293.016,244.531 181.198 C 244.531 71.877,244.730 77.060,240.430 74.212 C 238.753 73.101,11.185 72.115,5.724 73.195 M262.317 119.467 L 259.766 121.747 259.556 201.393 C 259.305 296.807,258.317 289.839,272.095 289.843 C 281.740 289.845,283.231 288.590,285.815 278.291 C 291.122 257.143,307.803 244.352,330.078 244.352 C 352.887 244.352,368.911 257.061,374.535 279.611 C 376.575 287.792,378.144 289.231,385.539 289.702 C 392.304 290.133,395.513 289.431,397.959 286.984 L 400.000 284.943 400.000 242.645 L 400.000 200.347 398.242 197.843 C 393.820 191.545,332.970 119.552,331.129 118.440 C 329.316 117.345,325.028 117.188,296.962 117.188 L 264.868 117.188 262.317 119.467 M322.401 134.961 C 324.438 136.095,339.652 153.721,356.483 174.444 C 360.904 179.887,361.203 182.397,357.877 186.120 L 355.598 188.672 319.567 188.890 C 271.825 189.179,276.563 192.215,276.563 161.328 C 276.563 138.048,276.759 136.808,280.768 134.831 C 284.614 132.933,318.954 133.041,322.401 134.961 M71.427 260.056 C 34.693 272.593,43.396 326.896,82.112 326.726 C 121.363 326.555,129.126 271.126,91.499 259.706 C 86.548 258.203,76.333 258.382,71.427 260.056 M318.963 260.160 C 279.983 274.017,294.154 332.104,335.132 326.438 C 362.653 322.633,373.996 288.182,354.235 268.421 C 345.303 259.489,330.562 256.036,318.963 260.160 M85.716 284.117 C 92.927 287.539,93.099 297.469,86.011 301.134 C 77.698 305.433,68.509 294.489,74.418 287.327 C 77.913 283.091,81.442 282.089,85.716 284.117 M332.566 283.646 C 340.871 286.792,341.668 297.473,333.874 301.172 C 326.207 304.810,317.842 296.459,321.477 288.797 C 323.471 284.596,328.684 282.175,332.566 283.646 " stroke="none" fill="#8D4953" fill-rule="evenodd"></path></g></svg>