<svg width="120" height="120" viewBox="0 0 120 120" fill="none" xmlns="http://www.w3.org/2000/svg">
<g clip-path="url(#clip0_1204_43)">
<rect width="120" height="120" fill="white"/>
<path d="M21.777 45.1093C21.2299 45.25 20.417 45.9535 20.1981 46.5006C20.0106 46.9539 19.9793 49.33 20.0106 61.4605L20.0575 75.8733L20.417 76.3891C20.9172 77.077 21.5738 77.3896 22.7305 77.4834L23.6997 77.5616L23.7623 79.2186C23.8092 80.6567 23.8561 80.9381 24.1687 81.3914C24.7627 82.2199 25.3255 82.4231 27.217 82.4857C28.874 82.5482 28.8896 82.5482 28.999 82.9703C29.3429 84.424 30.7185 86.081 32.188 86.8001C34.5953 87.9725 37.2371 87.5505 39.2224 85.6902L39.9727 84.9868L40.5668 85.6121C41.3484 86.425 42.3488 86.9877 43.5838 87.3003C46.1787 87.9725 49.2113 86.5187 50.4619 84.0332C50.712 83.5174 50.9308 82.9703 50.9308 82.7983C50.9308 82.5326 51.4623 82.5169 65.6094 82.5169H80.2879L80.3974 83.0172C80.6944 84.3615 81.9918 85.956 83.3987 86.7063C85.8061 87.9882 88.7136 87.5505 90.6364 85.6433C91.5743 84.6898 92.1371 83.5955 92.3715 82.2355L92.5435 81.2976L95.3729 81.2351C98.4993 81.1882 98.8901 81.0788 99.6092 80.1252C99.9218 79.6875 99.9375 79.4999 99.9844 73.888C100.031 66.9943 100.078 67.1975 98.4368 65.431L97.3425 64.2274L95.795 59.6003L94.2474 54.9575L94.6226 54.5042C94.8414 54.2541 95.0134 53.9415 95.0134 53.832C95.0134 53.3631 94.6382 52.8159 94.1849 52.6596C93.8879 52.5658 91.6212 52.5033 88.1196 52.5033H82.5077V49.7989C82.5077 47.3134 82.4764 47.0477 82.1638 46.4068C81.898 45.8909 81.6167 45.6095 81.1008 45.3438L80.413 44.9999L51.2435 45.0155C35.205 45.0312 21.9489 45.0781 21.777 45.1093ZM80.0847 61.2573V75.0917L78.4746 75.1698C76.7238 75.248 76.4112 75.42 76.4112 76.2328C76.4112 77.2489 77.0365 77.5147 79.5376 77.5147H81.3665L80.8663 78.4995C80.6006 79.031 80.3348 79.625 80.2879 79.8282L80.1941 80.1721L65.625 80.1408L51.0559 80.094L50.7745 79.2811C50.6182 78.8278 50.3368 78.2494 50.1492 77.9836L49.821 77.5147L61.3887 77.4834L72.9565 77.4365L73.3004 77.0926C73.7224 76.6705 73.7537 75.9202 73.3629 75.4825C73.0815 75.1698 72.8939 75.1698 47.7419 75.1386L22.4023 75.0917L22.3554 61.2104L22.3241 47.3447L51.1966 47.376L80.0847 47.4229V61.2573ZM92.1058 56.0674C92.3246 56.724 92.5122 57.318 92.5122 57.3961C92.5122 57.4587 91.1366 57.5056 89.464 57.5056C86.1031 57.5056 85.4153 57.6463 85.2433 58.3184C85.1964 58.5217 85.1651 60.3193 85.1964 62.3046C85.2433 65.6968 85.2589 65.9469 85.5716 66.369C85.7592 66.6035 86.1343 66.9474 86.4313 67.1193C86.9316 67.4163 87.2911 67.432 92.0745 67.4788C98.1867 67.5414 97.6708 67.3382 97.6708 69.808V71.4181H96.7798C95.7637 71.4181 95.1697 71.8089 95.1697 72.4968C95.1853 73.294 95.8888 73.763 97.0612 73.763H97.6708V76.3422V78.9215H94.857H92.0589L91.7932 78.4213C91.3086 77.4834 89.9017 76.1703 88.8699 75.7013C87.9477 75.2636 87.7913 75.248 85.212 75.2011L82.5077 75.1386V64.9933V54.8481H87.1035H91.6994L92.1058 56.0674ZM94.1849 62.2734C94.6226 63.5552 94.9977 64.712 94.9977 64.8058C95.0134 64.9621 94.1692 65.009 91.2617 65.009H87.51V62.4297V59.8504L90.4488 59.8817L93.372 59.9285L94.1849 62.2734ZM29.6087 78.1712C29.4055 78.5464 29.1397 79.1404 29.0303 79.4999L28.8427 80.1721H27.4514H26.0758V78.8434V77.5147H28.0298H29.9995L29.6087 78.1712ZM36.4712 77.8117C38.4252 78.7027 39.2693 80.9694 38.3626 82.9077C37.7217 84.299 36.5024 85.065 34.908 85.065C32.0942 85.0806 30.2496 82.0792 31.5314 79.5625C31.9066 78.8434 32.9852 77.8742 33.6574 77.6866C34.4703 77.4365 35.799 77.499 36.4712 77.8117ZM46.9603 78.0774C47.4293 78.3588 47.8982 78.8278 48.1952 79.3123C48.6173 80.0002 48.6642 80.2034 48.6642 81.3289C48.6642 82.4231 48.6017 82.6732 48.2578 83.2204C47.398 84.5178 46.4132 85.065 44.9125 85.065C42.8178 85.0806 41.1764 83.4392 41.1921 81.3445C41.1921 79.8595 41.7392 78.8434 42.9741 78.0618C43.7088 77.5772 43.9589 77.5303 45.1626 77.5616C46.0067 77.5928 46.335 77.6866 46.9603 78.0774ZM87.7288 77.7335C88.4479 78.0305 89.3545 78.8746 89.7141 79.5781C90.652 81.407 89.9486 83.6268 88.1196 84.6273C85.4622 86.0654 82.3045 84.0332 82.539 81.0319C82.5858 80.5004 82.7422 79.8595 82.8672 79.5937C83.2268 78.9059 84.0396 78.1399 84.7743 77.8117C85.5247 77.4678 86.9941 77.4209 87.7288 77.7335Z" fill="#8D4953"/>
<path d="M25.3099 70.5741C24.9347 71.0587 24.9035 71.2462 25.1692 71.809C25.2786 72.0591 25.5444 72.2623 25.9039 72.3718C26.2791 72.4812 34.5954 72.5124 51.5875 72.4812L76.7082 72.4343L77.0521 72.0904C77.4742 71.6683 77.5055 70.918 77.1147 70.4803C76.8333 70.1676 76.6926 70.1676 51.2279 70.1676H25.6225L25.3099 70.5741Z" fill="#8D4953"/>
<path d="M34.1576 80.4378C33.4386 81.2351 33.9388 82.4075 34.9861 82.4075C35.9553 82.4075 36.4399 81.2351 35.7677 80.516C35.3613 80.0939 34.5172 80.0627 34.1576 80.4378Z" fill="#8D4953"/>
<path d="M44.1935 80.4535C43.4275 81.0787 43.959 82.4075 44.9751 82.4075C45.6316 82.4075 46.085 81.9698 46.085 81.3132C46.085 80.3128 44.9907 79.8125 44.1935 80.4535Z" fill="#8D4953"/>
<path d="M85.509 80.5318C84.9463 81.1259 85.0713 81.9075 85.7904 82.2826C86.3531 82.5796 87.0879 82.3452 87.338 81.798C87.5881 81.2509 87.5568 81.0633 87.1816 80.5787C86.7596 80.0472 85.978 80.016 85.509 80.5318Z" fill="#8D4953"/>
</g>
<defs>
<clipPath id="clip0_1204_43">
<rect width="120" height="120" fill="white"/>
</clipPath>
</defs>
</svg>
