<svg id="svg" xmlns="http://www.w3.org/2000/svg" xmlns:xlink="http://www.w3.org/1999/xlink" width="400" height="400" viewBox="0, 0, 400,400"><g id="svgg"><path id="path0" d="M335.755 52.280 L 333.203 54.559 333.203 200.000 L 333.203 345.441 335.755 347.720 L 338.306 350.000 366.869 350.000 L 395.433 350.000 397.716 347.716 L 400.000 345.433 400.000 200.000 L 400.000 54.567 397.716 52.284 L 395.433 50.000 366.869 50.000 L 338.306 50.000 335.755 52.280 M252.284 102.284 L 250.000 104.567 250.000 225.000 L 250.000 345.433 252.284 347.716 L 254.567 350.000 283.131 350.000 L 311.694 350.000 314.245 347.720 L 316.797 345.441 316.797 225.000 L 316.797 104.559 314.245 102.280 L 311.694 100.000 283.131 100.000 L 254.567 100.000 252.284 102.284 M169.818 151.385 C 166.325 154.214,166.406 151.861,166.406 250.000 C 166.406 348.139,166.325 345.786,169.818 348.615 C 172.364 350.678,227.636 350.678,230.182 348.615 C 233.675 345.786,233.594 348.139,233.594 250.000 C 233.594 182.415,233.349 155.670,232.721 154.441 C 230.430 149.961,230.976 150.035,200.000 150.035 C 174.146 150.035,171.329 150.161,169.818 151.385 M85.755 202.280 L 83.203 204.559 83.203 275.000 L 83.203 345.441 85.755 347.720 L 88.306 350.000 116.869 350.000 L 145.433 350.000 147.716 347.716 L 150.000 345.433 150.000 275.000 L 150.000 204.567 147.716 202.284 L 145.433 200.000 116.869 200.000 L 88.306 200.000 85.755 202.280 M2.284 252.284 L 0.000 254.567 -0.000 300.000 L -0.000 345.433 2.284 347.716 L 4.567 350.000 33.131 350.000 L 61.694 350.000 64.245 347.720 L 66.797 345.441 66.797 300.000 L 66.797 254.559 64.245 252.280 L 61.694 250.000 33.131 250.000 L 4.567 250.000 2.284 252.284 " stroke="none" fill="#8D4953" fill-rule="evenodd"></path></g></svg>