<svg id="svg" xmlns="http://www.w3.org/2000/svg" xmlns:xlink="http://www.w3.org/1999/xlink" width="400" height="400" viewBox="0, 0, 400,400"><g id="svgg"><path id="path0" d="M61.328 51.463 C 44.450 56.329,30.561 70.483,26.239 87.222 C 24.354 94.524,24.354 317.976,26.239 325.278 C 29.625 338.390,39.364 350.672,51.269 356.843 C 63.055 362.952,51.079 362.541,210.314 362.313 L 352.734 362.109 357.422 359.811 C 363.404 356.878,369.378 350.904,372.311 344.922 L 374.609 340.234 374.852 320.186 L 375.095 300.138 340.087 299.828 C 299.951 299.472,298.619 299.304,285.547 292.959 C 233.108 267.503,242.196 190.327,299.219 176.866 C 304.244 175.679,310.059 175.438,340.087 175.172 L 375.095 174.862 374.852 154.814 L 374.609 134.766 372.311 130.078 C 369.378 124.096,363.404 118.122,357.422 115.189 L 352.734 112.891 212.500 112.500 C 72.794 112.111,72.255 112.103,69.534 110.505 C 63.414 106.909,61.349 99.192,65.042 93.712 C 69.335 87.342,57.064 87.940,192.578 87.500 C 302.903 87.142,313.085 87.001,315.234 85.809 C 328.946 78.200,328.130 57.150,313.892 51.211 C 309.197 49.253,68.160 49.493,61.328 51.463 M300.595 201.517 C 270.648 211.090,265.586 252.461,292.266 269.582 C 300.490 274.859,301.741 275.000,340.304 275.000 L 375.000 275.000 375.000 237.500 L 375.000 200.000 340.039 200.042 C 308.352 200.080,304.658 200.218,300.595 201.517 " stroke="none" fill="#8D4953" fill-rule="evenodd"></path></g></svg>