<svg width="195" height="147" viewBox="0 0 195 147" fill="none" xmlns="http://www.w3.org/2000/svg">
<path fill-rule="evenodd" clip-rule="evenodd" d="M137.448 1.58276C137.447 2.45328 136.529 30.7365 135.407 64.4336C134.286 98.1311 133.368 126.582 133.367 127.657V129.612H127.79H122.213L122.429 125.236C122.695 119.822 124.461 66.0997 124.461 63.4095L124.461 61.454H115.369H106.277V46.7024C106.277 34.701 106.187 31.9856 105.792 32.1381C105.524 32.2406 94.8786 38.8029 82.1344 46.72L58.9629 61.1155L58.8656 46.5732C58.8124 38.5745 58.6456 32.0332 58.4946 32.0361C58.344 32.039 47.1155 38.6308 33.5428 46.6847L8.86517 61.3276L8.77065 95.4699L8.67565 129.612H5.33782H2V137.806V146H97H192V137.806V129.612H187.579H183.157L182.937 126.912C182.678 123.721 177.147 3.89397 177.152 1.58276L177.156 0H157.303H137.449L137.448 1.58276ZM44.6759 99.0717V106.893H37.0683H29.4612V99.0717V91.2499H37.0683H44.6759V99.0717ZM71.7656 99.0717V106.893H64.158H56.5509V99.0717V91.2499H64.158H71.7656V99.0717ZM99.2268 99.0717V106.893H91.4335H83.6406V99.0717V91.2499H91.4335H99.2268V99.0717Z" fill="#65343C" fill-opacity="0.2"/>
<path d="M24.8438 146L15.5 113.094H15.2188C15.3021 113.948 15.3854 115.104 15.4688 116.562C15.5729 118.021 15.6667 119.594 15.75 121.281C15.8333 122.969 15.875 124.594 15.875 126.156V146H4.9375V100.312H21.375L30.9062 132.75H31.1562L40.5 100.312H56.9688V146H45.625V125.969C45.625 124.531 45.6458 122.99 45.6875 121.344C45.75 119.677 45.8125 118.115 45.875 116.656C45.9583 115.177 46.0312 114.01 46.0938 113.156H45.8125L36.5938 146H24.8438ZM96.6875 132.125C96.6875 134.604 96.0625 136.958 94.8125 139.188C93.5625 141.396 91.6146 143.188 88.9688 144.562C86.3438 145.938 82.9479 146.625 78.7812 146.625C76.6979 146.625 74.8646 146.531 73.2812 146.344C71.7188 146.156 70.2604 145.854 68.9062 145.438C67.5521 145 66.1458 144.438 64.6875 143.75V132.75C67.1667 134 69.6667 134.958 72.1875 135.625C74.7083 136.271 76.9896 136.594 79.0312 136.594C80.2604 136.594 81.2604 136.448 82.0312 136.156C82.8229 135.865 83.4062 135.469 83.7812 134.969C84.1562 134.448 84.3438 133.854 84.3438 133.188C84.3438 132.396 84.0625 131.729 83.5 131.188C82.9583 130.625 82.0833 130.042 80.875 129.438C79.6667 128.833 78.0729 128.083 76.0938 127.188C74.4062 126.396 72.875 125.583 71.5 124.75C70.1458 123.917 68.9792 122.969 68 121.906C67.0417 120.823 66.3021 119.562 65.7812 118.125C65.2604 116.688 65 114.99 65 113.031C65 110.094 65.7188 107.635 67.1562 105.656C68.6146 103.656 70.6354 102.156 73.2188 101.156C75.8229 100.156 78.8229 99.6562 82.2188 99.6562C85.1979 99.6562 87.875 99.9896 90.25 100.656C92.6458 101.323 94.7917 102.083 96.6875 102.938L92.9062 112.469C90.9479 111.573 89.0208 110.865 87.125 110.344C85.2292 109.802 83.4688 109.531 81.8438 109.531C80.7812 109.531 79.9062 109.667 79.2188 109.938C78.5521 110.188 78.0521 110.531 77.7188 110.969C77.4062 111.406 77.25 111.906 77.25 112.469C77.25 113.177 77.5208 113.812 78.0625 114.375C78.625 114.938 79.5521 115.552 80.8438 116.219C82.1562 116.865 83.9375 117.708 86.1875 118.75C88.4167 119.75 90.3125 120.833 91.875 122C93.4375 123.146 94.625 124.531 95.4375 126.156C96.2708 127.76 96.6875 129.75 96.6875 132.125ZM100.156 133.719V123.969H117.812V133.719H100.156ZM152.719 110.219C152.719 112.385 152.25 114.26 151.312 115.844C150.396 117.406 149.167 118.688 147.625 119.688C146.104 120.688 144.438 121.438 142.625 121.938V122.125C146.271 122.583 149.083 123.698 151.062 125.469C153.062 127.219 154.062 129.708 154.062 132.938C154.062 135.438 153.396 137.729 152.062 139.812C150.729 141.875 148.656 143.531 145.844 144.781C143.031 146.01 139.417 146.625 135 146.625C132.042 146.625 129.521 146.406 127.438 145.969C125.354 145.531 123.333 144.927 121.375 144.156V133.906C123.354 134.927 125.385 135.688 127.469 136.188C129.573 136.667 131.49 136.906 133.219 136.906C136.219 136.906 138.26 136.479 139.344 135.625C140.448 134.771 141 133.625 141 132.188C141 131.146 140.74 130.26 140.219 129.531C139.698 128.802 138.729 128.24 137.312 127.844C135.917 127.448 133.906 127.25 131.281 127.25H128.469V117.969H131.344C133.677 117.969 135.521 117.76 136.875 117.344C138.25 116.927 139.24 116.365 139.844 115.656C140.448 114.927 140.75 114.094 140.75 113.156C140.75 111.948 140.281 111.052 139.344 110.469C138.406 109.885 137.167 109.594 135.625 109.594C134.25 109.594 132.958 109.781 131.75 110.156C130.542 110.531 129.49 110.948 128.594 111.406C127.698 111.865 127.021 112.24 126.562 112.531L121.438 104.281C123.333 102.99 125.5 101.896 127.938 101C130.396 100.104 133.604 99.6562 137.562 99.6562C142.271 99.6562 145.969 100.594 148.656 102.469C151.365 104.344 152.719 106.927 152.719 110.219ZM186.125 146H173.594V123.406C173.594 122.99 173.594 122.229 173.594 121.125C173.594 120 173.604 118.76 173.625 117.406C173.667 116.052 173.719 114.833 173.781 113.75C173.24 114.396 172.729 114.948 172.25 115.406C171.792 115.865 171.344 116.292 170.906 116.688L165.719 120.969L159.312 113.094L175 100.312H186.125V146Z" fill="#65343C"/>
</svg>
