<svg width="59" height="59" viewBox="0 0 59 59" fill="none" xmlns="http://www.w3.org/2000/svg">
<path d="M19.3602 18.3157C19.1287 18.4362 18.9952 18.5602 18.8644 18.7826C18.5112 19.3776 18.2258 18.4463 22.8343 31.8499C25.1272 38.5268 27.0547 44.1098 27.1104 44.2653C27.3242 44.801 27.7132 45.0792 28.2831 45.106C28.6817 45.1205 28.8494 45.0652 29.1599 44.8002C29.3875 44.6182 29.678 44.0578 31.8431 39.7224L34.2732 34.8502L39.2714 32.7971C42.8302 31.3302 44.3332 30.685 44.498 30.5436C45.1565 29.9905 45.0738 28.8886 44.3464 28.4631C44.2142 28.3846 38.7558 26.0375 32.2146 23.2459C19.0234 17.6158 19.9799 17.9882 19.3602 18.3157Z" fill="white"/>
<rect x="13.3669" y="13.2097" width="1.1093" height="5.54649" rx="0.554649" transform="rotate(-42.9814 13.3669 13.2097)" fill="white" fill-opacity="0.4"/>
<rect x="17.8622" y="10.5366" width="1.1093" height="5.54649" rx="0.554649" transform="rotate(-18.0541 17.8622 10.5366)" fill="white" fill-opacity="0.4"/>
<rect x="23.1893" y="11" width="1.1093" height="5.54649" rx="0.554649" transform="rotate(8.46161 23.1893 11)" fill="white" fill-opacity="0.4"/>
<rect x="11.6793" y="22.7883" width="1.1093" height="5.54649" rx="0.554649" transform="rotate(-94.2429 11.6793 22.7883)" fill="white" fill-opacity="0.4"/>
<rect x="10.8635" y="17.8455" width="1.1093" height="5.54649" rx="0.554649" transform="rotate(-74.2267 10.8635 17.8455)" fill="white" fill-opacity="0.4"/>
</svg>
